<?xml version="1.0" encoding="UTF-8" standalone="no"?>
<svg
   version="1.1"
   id="Layer_1"
   x="0px"
   y="0px"
   viewBox="0 0 123 108"
   enable-background="new 0 0 122.879 103.39"
   xml:space="preserve"
   sodipodi:docname="add-folder-icon.svg"
   width="123"
   height="108"
   inkscape:version="1.2.2 (1:1.2.2+202212051552+b0a8486541)"
   xmlns:inkscape="http://www.inkscape.org/namespaces/inkscape"
   xmlns:sodipodi="http://sodipodi.sourceforge.net/DTD/sodipodi-0.dtd"
   xmlns="http://www.w3.org/2000/svg"
   xmlns:svg="http://www.w3.org/2000/svg"><defs
     id="defs304" /><sodipodi:namedview
     id="namedview302"
     pagecolor="#ffffff"
     bordercolor="#000000"
     borderopacity="0.25"
     inkscape:showpageshadow="2"
     inkscape:pageopacity="0.0"
     inkscape:pagecheckerboard="0"
     inkscape:deskcolor="#d1d1d1"
     showgrid="true"
     inkscape:zoom="4.76"
     inkscape:cx="63.445378"
     inkscape:cy="55.252101"
     inkscape:window-width="960"
     inkscape:window-height="953"
     inkscape:window-x="20"
     inkscape:window-y="20"
     inkscape:window-maximized="0"
     inkscape:current-layer="Layer_1"><inkscape:grid
       type="xygrid"
       id="grid423"
       originx="0"
       originy="0" /></sodipodi:namedview><g
     id="g299"
     transform="matrix(0.76066611,0,0,0.76066611,19.150887,24.612677)"><path
       d="m 2.7402146,17.225201 3.0565601,-9.22e-4 V 9.7166146 c 0,-0.7535334 0.3080541,-1.4397376 0.8024162,-1.9350221 C 7.0981647,7.2844634 7.7834466,6.9764094 8.5379023,6.9764094 H 11.519755 V 2.7402052 c 0,-0.7535334 0.307131,-1.4397376 0.801494,-1.93502205 C 12.8193,0.30713172 13.505504,0 14.259038,0 h 33.43493 c 0.753534,0 1.439738,0.30713172 1.935945,0.80426083 0.497129,0.49343987 0.805183,1.17872177 0.805183,1.93594437 v 4.2362042 h 44.414198 c 0.757222,0 1.443426,0.3071317 1.937789,0.8014938 0.495284,0.4952845 0.802416,1.1814887 0.802416,1.9387114 v 7.5076644 h 3.082381 c 0.7563,0 1.44251,0.308054 1.93779,0.802416 0.49436,0.495284 0.80242,1.181489 0.80242,1.938711 -0.0138,0.219512 -0.0212,0.327423 -0.06,0.539556 l -2.94035,21.61451 c 7.79082,5.213861 12.92259,14.094856 12.92259,24.173019 0,16.052013 -13.01298,29.066835 -29.066835,29.066835 -10.922083,0 -20.435788,-6.026423 -25.402468,-14.934165 H 12.889396 c -0.961977,0 -1.86677,-0.189997 -2.691322,-0.533099 C 9.3338622,79.532358 8.5600379,79.002025 7.9015032,78.349025 7.2604926,77.711703 6.732927,76.947102 6.3418644,76.104104 5.954491,75.270329 5.6990091,74.35539 5.5957095,73.403558 L 0.01476651,20.250402 C -0.06270816,19.501481 0.17156048,18.787607 0.61427287,18.244362 1.0542183,17.702039 1.7044521,17.323889 2.4561409,17.248259 Z M 97.702021,62.035073 h -0.0037 l -0.0028,-9.22e-4 h -0.0028 l -0.0028,-9.23e-4 h -0.0018 -0.0018 -0.0037 l -0.0028,-9.22e-4 h -0.0028 l -0.0028,-9.22e-4 h -0.0037 -0.0028 l -0.0037,-9.22e-4 h -0.0028 l -0.0028,-9.23e-4 h -0.0037 -0.0028 -9.22e-4 -0.0028 l -0.0028,-9.22e-4 h -0.0028 l -0.0037,-9.22e-4 h -0.0028 -0.0037 l -0.0028,-9.23e-4 h -0.0028 -0.0037 -0.0028 l -0.0037,-9.22e-4 h -0.0028 -9.22e-4 -0.0028 l -0.0028,-9.22e-4 h -0.0028 -0.0037 -0.0028 -0.0037 l -0.0028,-9.23e-4 h -0.0028 -0.0037 -0.0028 l -0.0037,-9.22e-4 h -0.0028 -9.22e-4 -0.0028 -0.0028 -0.0028 -0.0037 -0.0028 l -0.0037,-9.22e-4 h -0.0028 -0.0037 -0.0028 -0.0037 -0.0028 -0.0037 v 0 h -0.0028 l -0.0037,-9.23e-4 h -0.0028 -0.0028 -0.0037 -0.0065 -0.0028 -0.0037 -0.0028 -0.0037 -0.0028 -5.321772 -3.645921 v -8.967692 c 0,-0.795038 -0.651156,-1.448961 -1.448961,-1.448961 h -5.640893 c -0.795038,0 -1.449883,0.653923 -1.449883,1.448961 v 8.967692 h -8.967693 v 0 c -0.795038,0 -1.448961,0.653923 -1.448961,1.45265 v 5.637205 c 0,0.798727 0.653923,1.45265 1.448961,1.449883 h 8.971382 v 4.390231 4.577462 0.01568 0.01568 0.0065 l 9.22e-4,0.01014 v 0.01568 l 9.23e-4,0.01199 v 0.0046 l 9.22e-4,0.01568 9.22e-4,0.01568 v 0.0018 l 0.0018,0.01383 9.22e-4,0.01568 9.23e-4,0.0074 9.22e-4,0.0092 0.0018,0.01476 0.0018,0.01291 v 0.0037 l 0.0018,0.01476 0.0028,0.01568 v 0.0028 l 0.0028,0.01291 0.0018,0.01568 0.0018,0.0083 9.22e-4,0.0065 0.0037,0.01568 0.0018,0.01384 9.22e-4,0.0018 0.0037,0.01476 0.0028,0.01568 9.22e-4,0.0037 0.0028,0.01107 0.0037,0.01476 0.0028,0.01015 9.22e-4,0.0055 0.0046,0.01476 0.0037,0.01476 0.0046,0.01476 0.0046,0.01476 9.22e-4,0.0055 0.0037,0.0092 0.0046,0.01476 0.0037,0.01015 9.22e-4,0.0046 0.0055,0.01476 0.0055,0.01384 v 0.0018 l 0.0046,0.01291 0.0055,0.01384 0.0028,0.0065 0.0037,0.0083 0.0055,0.01384 0.0046,0.01199 9.23e-4,0.0028 0.0065,0.01383 0.0065,0.01384 9.22e-4,0.0018 0.0055,0.01199 0.0065,0.01384 0.0028,0.0074 0.0037,0.0065 0.0065,0.01384 0.0065,0.01199 9.22e-4,9.23e-4 0.0065,0.01383 0.0074,0.01291 0.0018,0.0037 0.0055,0.01015 0.0074,0.01291 0.0046,0.0083 0.0028,0.0046 0.0083,0.01383 0.0074,0.01199 0.0083,0.01384 0.0083,0.01291 0.0028,0.0037 0.0055,0.0083 0.0083,0.01291 0.0055,0.0092 0.0028,0.0037 0.0083,0.01199 0.0092,0.01291 v 9.23e-4 l 0.0083,0.01107 0.0092,0.01199 0.0037,0.0055 0.0055,0.0065 0.0092,0.01199 0.0074,0.01014 0.0018,0.0018 c 0.26655,0.336646 0.677903,0.555235 1.136295,0.555235 h 5.638127 c 0.458392,0 0.870668,-0.216745 1.137217,-0.555235 l 9.23e-4,-9.22e-4 0.0083,-0.01107 0.0092,-0.01199 0.0037,-0.0046 0.0055,-0.0074 0.0083,-0.01199 0.0074,-0.01014 0.0018,-0.0018 0.0083,-0.01291 0.0092,-0.01199 9.22e-4,-0.0028 0.0074,-0.01015 0.0083,-0.01199 0.0083,-0.01291 0.0074,-0.01291 0.0083,-0.01199 v -0.01845 l 0.0083,-0.01291 0.0074,-0.01291 0.0018,-0.0037 0.0055,-0.01015 0.0074,-0.01291 0.0046,-0.0083 0.0028,-0.0046 0.0074,-0.01384 0.0065,-0.01291 9.22e-4,-9.22e-4 0.0065,-0.01291 0.0065,-0.01384 0.0028,-0.0055 0.0037,-0.0083 0.0065,-0.01384 0.0055,-0.01015 9.22e-4,-0.0037 0.0065,-0.01384 0.0018,-0.0028 0.0092,-0.02213 9.23e-4,-0.0018 0.0055,-0.01476 0.0028,-0.0065 0.0028,-0.0074 0.0055,-0.01476 0.0046,-0.01199 9.22e-4,-0.0018 0.0055,-0.01476 0.0046,-0.01476 0.0018,-0.0028 0.0037,-0.01107 0.0046,-0.01476 0.0028,-0.0092 0.0018,-0.0055 0.0046,-0.01476 0.0037,-0.01476 h 9.22e-4 l 0.0037,-0.01476 0.0037,-0.01568 0.0018,-0.0046 0.0028,-0.01015 0.0037,-0.01476 0.0018,-0.01107 9.22e-4,-0.0046 0.0037,-0.01476 0.0037,-0.01568 v -9.23e-4 l 0.0028,-0.01383 0.0028,-0.01568 9.22e-4,-0.0065 0.0018,-0.0092 0.0028,-0.01476 0.0018,-0.01291 9.23e-4,-0.0028 0.0018,-0.01568 0.0018,-0.01568 9.22e-4,-0.0028 9.22e-4,-0.01291 0.0018,-0.01568 9.22e-4,-0.0083 9.23e-4,-0.0074 0.0018,-0.01568 9.23e-4,-0.01476 v -0.0018 l 9.22e-4,-0.01568 9.22e-4,-0.01568 9.23e-4,-0.0046 v -0.01199 l 9.22e-4,-0.01568 v -0.01015 l 9.22e-4,-0.0055 v -0.0166 -0.01568 -4.577462 -4.390231 h 2.484724 5.519147 0.9629 c 0.795037,0 1.44896,-0.654845 1.44896,-1.449883 v -5.640894 c -0.0092,-0.712029 -0.555235,-1.321681 -1.260808,-1.418524 z M 95.261569,39.379267 97.526781,22.721291 8.4327581,22.71299 H 5.7783284 l 5.2627436,50.151013 c 0.03413,0.323733 0.116212,0.629942 0.23888,0.902948 0.122668,0.273006 0.286841,0.51742 0.480528,0.714796 0.15126,0.149416 0.3265,0.270239 0.518342,0.349559 l 0.03413,0.0166 c 0.171551,0.06641 0.36247,0.1033 0.56907,0.1033 h 43.63115 c -0.852222,-2.735594 -1.311536,-5.643661 -1.311536,-8.660561 0,-16.052936 13.0139,-29.066835 29.066836,-29.066835 3.890335,9.22e-4 7.60174,0.767368 10.993101,2.155456 z M 11.277185,12.465121 v 4.747168 l 80.831903,-0.857756 v -3.890335 h -44.41512 c -0.757222,0 -1.442504,-0.307131 -1.938711,-0.803338 -0.494362,-0.494362 -0.802416,-1.180567 -0.802416,-1.9368669 V 5.4887113 H 16.997398 v 4.2362041 c 0,0.7526106 -0.307132,1.4378926 -0.802416,1.9340996 -0.500818,0.499896 -1.185178,0.806106 -1.937789,0.806106 z"
       id="path297"
       style="stroke-width:0.922317" /></g></svg>
