<?xml version="1.0" encoding="UTF-8" standalone="no"?>
<svg
   shape-rendering="geometricPrecision"
   text-rendering="geometricPrecision"
   image-rendering="optimizeQuality"
   fill-rule="evenodd"
   clip-rule="evenodd"
   viewBox="0 0 123 108"
   version="1.1"
   id="svg182"
   sodipodi:docname="bottom-left-side-turn-arrow-icon.svg"
   width="123"
   height="108"
   inkscape:version="1.2.2 (1:1.2.2+202212051552+b0a8486541)"
   xmlns:inkscape="http://www.inkscape.org/namespaces/inkscape"
   xmlns:sodipodi="http://sodipodi.sourceforge.net/DTD/sodipodi-0.dtd"
   xmlns="http://www.w3.org/2000/svg"
   xmlns:svg="http://www.w3.org/2000/svg">
  <defs
     id="defs186" />
  <sodipodi:namedview
     id="namedview184"
     pagecolor="#ffffff"
     bordercolor="#000000"
     borderopacity="0.25"
     inkscape:showpageshadow="2"
     inkscape:pageopacity="0.0"
     inkscape:pagecheckerboard="0"
     inkscape:deskcolor="#d1d1d1"
     showgrid="true"
     inkscape:zoom="4.76"
     inkscape:cx="69.117647"
     inkscape:cy="47.268908"
     inkscape:window-width="960"
     inkscape:window-height="953"
     inkscape:window-x="20"
     inkscape:window-y="20"
     inkscape:window-maximized="0"
     inkscape:current-layer="svg182">
    <inkscape:grid
       type="xygrid"
       id="grid413" />
  </sodipodi:namedview>
  <path
     fill-rule="nonzero"
     d="M 52.212378,57.114716 H 62.71566 c 6.60173,0 9.653956,-0.693635 10.655486,-2.264479 1.343118,-2.105304 1.391916,-7.125732 1.391916,-14.392051 V 25.692013 h 13.399817 v 14.766173 c 0,9.528474 -0.117349,16.196431 -3.537886,21.561934 -3.763289,5.902287 -10.09198,8.494413 -21.909333,8.494413 H 52.099677 c 0.282334,2.94882 0.765671,6.21599 1.479058,10.177958 0.08365,0.463585 0.02324,0.908581 -0.128968,1.286187 l -0.02672,0.06041 a 2.2777248,2.2777248 0 0 1 -0.908579,1.017793 2.3815958,2.3815958 0 0 1 -1.319882,0.333459 l -0.03486,-0.0027 C 50.739127,83.36209 50.316207,83.217995 49.931629,82.929854 L 29.50949,66.037857 a 2.29341,2.29341 0 0 1 -0.564667,-0.692472 l -0.02556,-0.04879 C 28.781,65.02239 28.698508,64.708685 28.677595,64.372906 c -0.01742,-0.391549 0.05461,-0.7343 0.19287,-1.036386 0.11851,-0.26142 0.284657,-0.483337 0.483336,-0.695958 L 49.804989,44.810541 c 0.368312,-0.316028 0.779614,-0.497279 1.196724,-0.549564 l 0.05461,-0.0081 c 0.442671,-0.05228 0.894637,0.04066 1.282701,0.233536 l 0.07203,0.0337 c 0.399682,0.216108 0.748243,0.572801 0.968997,1.003854 0.19868,0.395034 0.290467,0.851648 0.224241,1.332662 l -0.0024,0.0337 c -0.60998,3.981719 -1.081699,7.263995 -1.389593,10.224432 z"
     id="path180"
     style="fill:#000000;stroke-width:0.999996" />
</svg>
