<?xml version="1.0" encoding="UTF-8" standalone="no"?>
<svg
   version="1.1"
   id="Layer_1"
   x="0px"
   y="0px"
   viewBox="0 0 123 108"
   xml:space="preserve"
   sodipodi:docname="change-account-password.svg"
   width="123"
   height="108"
   inkscape:version="1.2.2 (1:1.2.2+202305151914+b0a8486541)"
   xmlns:inkscape="http://www.inkscape.org/namespaces/inkscape"
   xmlns:sodipodi="http://sodipodi.sourceforge.net/DTD/sodipodi-0.dtd"
   xmlns="http://www.w3.org/2000/svg"
   xmlns:svg="http://www.w3.org/2000/svg"><defs
     id="defs9" /><sodipodi:namedview
     id="namedview7"
     pagecolor="#ffffff"
     bordercolor="#000000"
     borderopacity="0.25"
     inkscape:showpageshadow="2"
     inkscape:pageopacity="0.0"
     inkscape:pagecheckerboard="0"
     inkscape:deskcolor="#d1d1d1"
     showgrid="true"
     inkscape:zoom="4.5345065"
     inkscape:cx="42.562515"
     inkscape:cy="61.307664"
     inkscape:window-width="1920"
     inkscape:window-height="953"
     inkscape:window-x="0"
     inkscape:window-y="0"
     inkscape:window-maximized="1"
     inkscape:current-layer="Layer_1"><inkscape:grid
       type="xygrid"
       id="grid480" /></sodipodi:namedview><g
     id="g4"
     transform="matrix(0.49615876,0,0,0.49615876,40.704878,25.616475)"
     style="stroke-width:2.01548"><path
       d="M 60.78,43.44 C 59.29,44.25 57.43,43.7 56.63,42.22 55.82,40.73 56.37,38.87 57.86,38.07 64.9,34.25 68.18,29.31 68.84,24.48 69.19,21.9 68.79,19.31 67.82,16.91 66.83,14.48 65.26,12.27 63.27,10.49 59.4,7.03 53.97,5.21 48.3,6.62 46,7.19 44.01,8.34 42.27,9.96 c -1.85,1.72 -3.45,3.97 -4.85,6.63 -0.79,1.5 -2.64,2.07 -4.13,1.29 -1.5,-0.79 -2.07,-2.64 -1.29,-4.13 1.72,-3.26 3.73,-6.06 6.11,-8.28 2.49,-2.31 5.38,-3.97 8.74,-4.8 7.8,-1.93 15.23,0.53 20.51,5.25 2.68,2.4 4.81,5.39 6.15,8.69 1.35,3.33 1.9,6.99 1.39,10.7 -0.91,6.62 -5.15,13.26 -14.12,18.13 z M 37.32,67.61 C 25.72,52.03 25.44,37.27 39.52,23.55 L 29.38,17.95 C 21.26,14.79 6.36,38.08 12.12,44.3 l 7.9,11.72 -1.63,3.4 c -0.45,1.01 -0.01,1.72 1.09,2.21 l 1.07,0.29 -20.55,40.67 4.16,8.87 8.32,-2.45 2.14,-4.16 -2.05,-3.84 4.52,-0.97 1.05,-2.04 -2.36,-3.6 1.55,-3.01 4.51,-0.57 1.47,-2.85 -2.52,-3.29 1.61,-3.12 4.6,-0.75 6.26,-11.95 1.06,0.58 c 1.84,1.12 2.79,0.4 3,-1.83 z m 21.83,9.77 -3.06,11.42 -4.25,1.68 -0.89,3.33 3.1,2.63 -0.81,3.03 -4.2,1.48 -0.86,3.2 3.01,2.95 -0.58,2.17 -4.13,1.87 2.76,3.25 -1.19,4.43 -7.45,4.07 -5.82,-7.63 11.1,-41.43 -2.69,-0.72 C 42.64,72.96 42.3,72.39 42.45,71.83 l 1.13,-4.21 C 35.44,61.45 31.41,50.77 34.21,40.3 37.81,26.85 51.39,18.73 64.85,21.75 c 0.06,0.72 0.05,1.45 -0.05,2.18 -0.25,1.82 -1.04,3.69 -2.5,5.5 -0.2,0.24 -0.41,0.49 -0.63,0.73 -4.3,-0.28 -8.33,2.5 -9.49,6.82 -0.5,1.86 -0.39,3.74 0.2,5.43 0.14,0.6 0.37,1.18 0.67,1.75 0.71,1.3 1.75,2.29 2.97,2.92 0.8,0.53 1.7,0.93 2.67,1.2 4.83,1.29 9.78,-1.49 11.22,-6.24 1.46,-1.29 2.73,-2.65 3.82,-4.05 2.12,-2.73 3.57,-5.63 4.43,-8.58 5.84,6.3 8.41,15.37 6.02,24.29 -2.8,10.47 -11.65,17.71 -21.77,18.98 l -1.13,4.21 c -0.15,0.55 -0.72,0.89 -1.28,0.74 z"
       id="path2"
       style="stroke-width:2.01548" /></g></svg>
