<?xml version="1.0" encoding="UTF-8" standalone="no"?>
<svg
   id="Layer_1"
   data-name="Layer 1"
   viewBox="0 0 123 108"
   version="1.1"
   sodipodi:docname="change-icon.svg"
   width="123"
   height="108"
   inkscape:version="1.2.2 (1:1.2.2+202212051552+b0a8486541)"
   xmlns:inkscape="http://www.inkscape.org/namespaces/inkscape"
   xmlns:sodipodi="http://sodipodi.sourceforge.net/DTD/sodipodi-0.dtd"
   xmlns="http://www.w3.org/2000/svg"
   xmlns:svg="http://www.w3.org/2000/svg"
   xmlns:rdf="http://www.w3.org/1999/02/22-rdf-syntax-ns#"
   xmlns:cc="http://creativecommons.org/ns#"
   xmlns:dc="http://purl.org/dc/elements/1.1/">
  <defs
     id="defs9" />
  <sodipodi:namedview
     id="namedview7"
     pagecolor="#ffffff"
     bordercolor="#000000"
     borderopacity="0.25"
     inkscape:showpageshadow="2"
     inkscape:pageopacity="0.0"
     inkscape:pagecheckerboard="0"
     inkscape:deskcolor="#d1d1d1"
     showgrid="true"
     inkscape:zoom="4.76"
     inkscape:cx="51.890756"
     inkscape:cy="49.789916"
     inkscape:window-width="960"
     inkscape:window-height="953"
     inkscape:window-x="20"
     inkscape:window-y="20"
     inkscape:window-maximized="0"
     inkscape:current-layer="Layer_1">
    <inkscape:grid
       type="xygrid"
       id="grid238"
       originx="0"
       originy="0" />
  </sodipodi:namedview>
  <title
     id="title2">change</title>
  <metadata
     id="metadata416">
    <rdf:RDF>
      <cc:Work
         rdf:about="">
        <dc:title>change</dc:title>
      </cc:Work>
    </rdf:RDF>
  </metadata>
  <path
     d="M 33.01043,53.860607 C 32.603087,47.9134 32.87077,43.0893 34.901664,39.696717 c 2.030894,-3.392582 5.89483,-5.382743 12.557791,-5.382743 h 1.16384 v -2.909591 0 c 0,-1.163837 0.20949,-1.867957 0.7274,-2.153096 0.5179,-0.28514 1.2453,-0.05238 2.12982,0.791408 l 6.95974,6.616409 a 2.0017984,2.0017984 0 0 1 0.78559,1.606094 2.3276726,2.3276726 0 0 1 -0.86124,1.466434 l -6.84336,6.552397 c -0.83214,0.837963 -1.53044,1.088189 -2.10072,0.803049 -0.57028,-0.285141 -0.78559,-0.983441 -0.77396,-2.089087 v 0 -3.538061 c -6.756065,-0.256045 -8.21086,2.531343 -8.443628,6.238161 -0.06982,1.163837 -0.0349,2.461515 0,3.759192 0,0.837961 0.04656,1.681743 0.04656,2.397506 a 0.68666339,0.68666339 0 0 1 -0.680845,0.704119 H 33.691278 A 0.68084423,0.68084423 0 0 1 33.010431,53.878064 Z M 69.589805,25.463 h 23.68407 a 3.3576677,3.3576677 0 0 1 3.35184,3.351849 v 18.411888 a 3.34021,3.34021 0 0 1 -0.98344,2.368407 2.2694807,2.2694807 0 0 1 -0.22112,0.192034 3.305295,3.305295 0 0 1 -2.14728,0.791409 h -23.68407 a 3.3460292,3.3460292 0 0 1 -3.34603,-3.35185 V 28.814849 a 3.3343908,3.3343908 0 0 1 0.97762,-2.362589 v 0 A 3.3634868,3.3634868 0 0 1 69.589805,25.463 Z M 28.47147,59.586681 h 23.684065 a 3.3343908,3.3343908 0 0 1 2.32768,0.983442 v 0 a 3.3460292,3.3460292 0 0 1 0.97762,2.362588 v 18.394431 a 3.34021,3.34021 0 0 1 -0.97762,2.368407 2.2694807,2.2694807 0 0 1 -0.22114,0.192033 3.3285717,3.3285717 0 0 1 -2.14727,0.791409 H 28.47147 A 3.3576677,3.3576677 0 0 1 25.119621,81.327142 V 62.938529 a 3.3285717,3.3285717 0 0 1 0.989261,-2.362587 v 0 a 3.34021,3.34021 0 0 1 2.368406,-0.983441 z m 56.801025,-2.042533 c 0.40734,5.953023 0.13966,10.777124 -1.89123,14.169707 -2.0309,3.392583 -5.88902,5.376924 -12.55779,5.376924 h -1.19294 v 2.90959 0 c 0,1.163837 -0.20367,1.867957 -0.72158,2.153099 -0.5179,0.285137 -1.2453,0.05237 -2.12982,-0.79141 l -6.93646,-6.616409 a 1.99016,1.99016 0 0 1 -0.78559,-1.565361 2.3625877,2.3625877 0 0 1 0.86124,-1.472252 l 6.84336,-6.581494 c 0.83214,-0.837962 1.53044,-1.094008 2.10072,-0.803047 0.57028,0.290958 0.78559,0.977621 0.76813,2.089086 v 0 3.538061 c 6.75607,0.256045 8.20505,-2.531344 8.43781,-6.243981 0.0756,-1.163837 0.0407,-2.455694 0,-3.759191 0,-0.832142 -0.0466,-1.681742 -0.0466,-2.397502 a 0.68084423,0.68084423 0 0 1 0.68667,-0.663388 h 5.87737 a 0.68666339,0.68666339 0 0 1 0.68667,0.680845 z"
     id="path4"
     style="fill:#000000;stroke-width:1" />
</svg>
