<?xml version="1.0" encoding="UTF-8" standalone="no"?>
<svg
   id="Layer_1"
   data-name="Layer 1"
   viewBox="0 0 123 108"
   version="1.1"
   sodipodi:docname="download-file-icon.svg"
   width="123"
   height="108"
   inkscape:version="1.2.2 (1:1.2.2+202212051552+b0a8486541)"
   xmlns:inkscape="http://www.inkscape.org/namespaces/inkscape"
   xmlns:sodipodi="http://sodipodi.sourceforge.net/DTD/sodipodi-0.dtd"
   xmlns="http://www.w3.org/2000/svg"
   xmlns:svg="http://www.w3.org/2000/svg"
   xmlns:rdf="http://www.w3.org/1999/02/22-rdf-syntax-ns#"
   xmlns:cc="http://creativecommons.org/ns#"
   xmlns:dc="http://purl.org/dc/elements/1.1/">
  <defs
     id="defs244" />
  <sodipodi:namedview
     id="namedview242"
     pagecolor="#ffffff"
     bordercolor="#000000"
     borderopacity="0.25"
     inkscape:showpageshadow="2"
     inkscape:pageopacity="0.0"
     inkscape:pagecheckerboard="0"
     inkscape:deskcolor="#d1d1d1"
     showgrid="true"
     inkscape:zoom="4.76"
     inkscape:cx="51.05042"
     inkscape:cy="53.781513"
     inkscape:window-width="960"
     inkscape:window-height="953"
     inkscape:window-x="20"
     inkscape:window-y="20"
     inkscape:window-maximized="0"
     inkscape:current-layer="Layer_1">
    <inkscape:grid
       type="xygrid"
       id="grid365" />
  </sodipodi:namedview>
  <title
     id="title237">download-file</title>
  <path
     d="m 73.246509,46.305936 a 4.275216,4.275216 0 1 1 5.98863,6.099531 L 62.993753,68.419505 a 4.280761,4.280761 0 0 1 -5.999719,0 L 40.98554,52.610633 a 4.275933,4.275933 0 1 1 5.994175,-6.099531 l 8.811049,8.733418 0.08872,-30.758266 a 4.280761,4.280761 0 0 1 8.555977,0.07208 l -0.08318,30.49765 z m -46.89984,36.863341 0.05545,-16.734892 a 4.280761,4.280761 0 1 1 8.555977,0.07763 l -0.03882,12.19906 q 25.507125,0.0499 50.964346,0 l 0.03881,-12.265601 a 4.280937,4.280937 0 1 1 8.561522,0.07763 l -0.05547,16.635081 h -0.04988 a 4.275216,4.275216 0 0 1 -4.236401,4.08114 q -29.793431,0.05545 -59.542502,0 a 4.2696709,4.2696709 0 0 1 -4.253042,-4.070048 z"
     id="path239"
     style="stroke-width:0.554503" />
  <metadata
     id="metadata363">
    <rdf:RDF>
      <cc:Work
         rdf:about="">
        <dc:title>download-file</dc:title>
      </cc:Work>
    </rdf:RDF>
  </metadata>
</svg>
