<?xml version="1.0" encoding="UTF-8" standalone="no"?>
<svg
   shape-rendering="geometricPrecision"
   text-rendering="geometricPrecision"
   image-rendering="optimizeQuality"
   fill-rule="evenodd"
   clip-rule="evenodd"
   viewBox="0 0 123 108"
   version="1.1"
   id="svg433"
   sodipodi:docname="edit-folder-name.svg"
   width="123"
   height="108"
   inkscape:version="1.2.2 (1:1.2.2+202305151914+b0a8486541)"
   xml:space="preserve"
   xmlns:inkscape="http://www.inkscape.org/namespaces/inkscape"
   xmlns:sodipodi="http://sodipodi.sourceforge.net/DTD/sodipodi-0.dtd"
   xmlns="http://www.w3.org/2000/svg"
   xmlns:svg="http://www.w3.org/2000/svg"><defs
     id="defs437" /><sodipodi:namedview
     id="namedview435"
     pagecolor="#ffffff"
     bordercolor="#000000"
     borderopacity="0.25"
     inkscape:showpageshadow="2"
     inkscape:pageopacity="0.0"
     inkscape:pagecheckerboard="0"
     inkscape:deskcolor="#d1d1d1"
     showgrid="true"
     showguides="false"
     inkscape:zoom="4.76"
     inkscape:cx="41.806723"
     inkscape:cy="46.848739"
     inkscape:window-width="1920"
     inkscape:window-height="953"
     inkscape:window-x="0"
     inkscape:window-y="0"
     inkscape:window-maximized="1"
     inkscape:current-layer="svg433"><inkscape:grid
       type="xygrid"
       id="grid556" /></sodipodi:namedview><style
     type="text/css"
     id="style341">.st0{fill-rule:evenodd;clip-rule:evenodd;}</style><path
     class="st0"
     d="m 79.140562,25.966695 c -0.731076,-0.681002 -1.572314,-1.04654 -2.513699,-0.996466 -0.941386,0 -1.782624,0.365538 -2.463626,1.101621 l -5.553175,5.763483 15.557899,15.03713 5.603244,-5.868637 c 0.681004,-0.681002 0.941392,-1.572314 0.941392,-2.5137 0,-0.941385 -0.365542,-1.832697 -1.046546,-2.463625 z M 52.51137,79.835977 c -2.043008,0.681002 -4.136088,1.311931 -6.184102,1.992933 -2.043007,0.681002 -4.086013,1.362005 -6.184102,2.043007 -4.87217,1.572314 -7.546105,2.463626 -8.121953,2.618854 -0.575847,0.155227 -0.210309,-2.09308 0.996467,-6.810022 l 3.875704,-14.826821 0.320472,-0.330487 15.302521,15.302522 z M 42.87719,58.639782 64.403873,36.196751 79.96177,51.178801 58.174704,73.937295 Z"
     id="path343"
     style="stroke-width:0.999999" /></svg>
