<?xml version="1.0" encoding="UTF-8" standalone="no"?>
<svg
   version="1.1"
   id="Layer_1"
   x="0px"
   y="0px"
   width="123"
   height="108"
   viewBox="0 0 123 108"
   enable-background="new 0 0 96.108 122.88"
   xml:space="preserve"
   sodipodi:docname="edit-password-icon.svg"
   inkscape:version="1.2.2 (1:1.2.2+202212051552+b0a8486541)"
   xmlns:inkscape="http://www.inkscape.org/namespaces/inkscape"
   xmlns:sodipodi="http://sodipodi.sourceforge.net/DTD/sodipodi-0.dtd"
   xmlns="http://www.w3.org/2000/svg"
   xmlns:svg="http://www.w3.org/2000/svg"><defs
     id="defs9" /><sodipodi:namedview
     id="namedview7"
     pagecolor="#ffffff"
     bordercolor="#000000"
     borderopacity="0.25"
     inkscape:showpageshadow="2"
     inkscape:pageopacity="0.0"
     inkscape:pagecheckerboard="0"
     inkscape:deskcolor="#d1d1d1"
     showgrid="true"
     inkscape:zoom="3.3658283"
     inkscape:cx="23.471191"
     inkscape:cy="27.630643"
     inkscape:window-width="1920"
     inkscape:window-height="953"
     inkscape:window-x="0"
     inkscape:window-y="0"
     inkscape:window-maximized="1"
     inkscape:current-layer="Layer_1"><inkscape:grid
       type="xygrid"
       id="grid238"
       originx="0"
       originy="0" /></sodipodi:namedview><style
     type="text/css"
     id="style1014">.st0{fill-rule:evenodd;clip-rule:evenodd;}</style><path
     id="path2"
     style="stroke-width:2.94078"
     d="M 48.966167 -0.00017921928 C 38.754197 -0.00017921928 29.473579 4.1757472 22.7496 10.899728 L 22.7496 10.910362 C 16.028621 17.633345 11.849661 26.911249 11.849661 37.116219 L 11.849661 54.960164 L 11.849661 56.037749 L 2.8922162 56.037749 C 1.302221 56.037749 -0.00025521807 57.337673 -0.00025521807 58.926667 L -0.00025521807 119.98741 C -0.00025521807 121.57641 1.302221 122.87988 2.8922162 122.87988 L 60.270201 122.87988 C 60.226091 122.4021 60.191811 121.92347 60.167404 121.44428 C 60.168275 102.13474 75.822684 86.481963 95.13228 86.483049 C 95.45849 86.486749 95.784636 86.495032 96.110616 86.507862 L 96.110616 58.926667 C 96.110616 57.337673 94.808141 56.037749 93.218144 56.037749 L 86.082672 56.037749 L 86.082672 54.960164 L 86.082672 37.116219 C 86.082672 26.911249 81.903713 17.633341 75.182734 10.910362 L 75.1721 10.899728 C 68.448121 4.1757472 59.170137 -0.00017921928 48.966167 -0.00017921928 z M 48.966167 14.217553 C 55.204149 14.217553 60.880747 16.771118 64.991735 20.885106 L 64.99528 20.881561 C 69.103265 24.994549 71.659307 30.670648 71.659307 36.910627 L 71.659307 54.960164 L 71.659307 56.037749 L 26.269482 56.037749 L 26.269482 54.963709 L 26.269482 36.910627 C 26.269482 30.670648 28.824522 24.994549 32.93351 20.881561 C 37.049498 16.770573 42.725185 14.217553 48.966167 14.217553 z M 47.452582 72.594973 C 52.150567 72.594973 55.963396 76.404777 55.963396 81.105762 C 55.963396 85.22575 53.037479 88.661409 49.150491 89.446406 L 53.730238 110.58691 L 41.171382 110.64008 L 44.857865 89.216002 C 41.426874 88.116005 38.941768 84.90175 38.941768 81.105762 C 38.941768 76.404777 42.749597 72.594973 47.452582 72.594973 z M 90.410746 98.829188 C 90.057323 98.829188 89.741328 98.968078 89.48558 99.243916 L 87.39421 101.40972 L 93.246502 107.06349 L 95.352051 104.85515 C 95.607773 104.59942 95.70652 104.26215 95.70652 103.90872 C 95.70652 103.5553 95.568785 103.21918 95.313059 102.98356 L 91.353634 99.204925 C 91.077789 98.949194 90.764179 98.809075 90.410746 98.829188 z M 85.813276 103.05091 L 76.781392 112.43014 L 82.530888 118.17962 L 91.662023 108.68341 L 85.813276 103.05091 z M 74.65103 114.64203 L 74.53051 114.76609 L 73.07364 120.34188 C 72.622508 122.11476 72.485937 122.96149 72.701447 122.90114 C 72.91983 122.8408 73.92375 122.50764 75.756975 121.91572 C 76.544289 121.65999 77.31156 121.40226 78.07875 121.14653 C 78.845954 120.88792 79.63688 120.65433 80.40407 120.3986 L 80.40407 120.39505 L 74.65103 114.64203 z "
     transform="matrix(0.55099939,0,0,0.55100098,33.756,17.23838)" /></svg>
