<?xml version="1.0" encoding="UTF-8" standalone="no"?>
<svg
   shape-rendering="geometricPrecision"
   text-rendering="geometricPrecision"
   image-rendering="optimizeQuality"
   fill-rule="evenodd"
   clip-rule="evenodd"
   viewBox="0 0 123 108"
   version="1.1"
   id="svg433"
   sodipodi:docname="gallery-grid-view-icon.svg"
   width="123"
   height="108"
   inkscape:version="1.2.2 (1:1.2.2+202212051552+b0a8486541)"
   xmlns:inkscape="http://www.inkscape.org/namespaces/inkscape"
   xmlns:sodipodi="http://sodipodi.sourceforge.net/DTD/sodipodi-0.dtd"
   xmlns="http://www.w3.org/2000/svg"
   xmlns:svg="http://www.w3.org/2000/svg">
  <defs
     id="defs437" />
  <sodipodi:namedview
     id="namedview435"
     pagecolor="#ffffff"
     bordercolor="#000000"
     borderopacity="0.25"
     inkscape:showpageshadow="2"
     inkscape:pageopacity="0.0"
     inkscape:pagecheckerboard="0"
     inkscape:deskcolor="#d1d1d1"
     showgrid="true"
     showguides="false"
     inkscape:zoom="4.76"
     inkscape:cx="64.705882"
     inkscape:cy="46.848739"
     inkscape:window-width="960"
     inkscape:window-height="953"
     inkscape:window-x="20"
     inkscape:window-y="20"
     inkscape:window-maximized="0"
     inkscape:current-layer="svg433">
    <inkscape:grid
       type="xygrid"
       id="grid556" />
  </sodipodi:namedview>
  <path
     d="m 32.472252,24.995897 h 13.799172 c 0.404735,0 0.73315,0.329571 0.73315,0.73315 v 13.799172 c 0,0.404735 -0.328415,0.73315 -0.73315,0.73315 H 32.472252 c -0.40358,0 -0.73315,-0.328415 -0.73315,-0.73315 V 25.729047 c 0,-0.403579 0.32957,-0.73315 0.73315,-0.73315 z M 76.41382,68.93631 h 13.799174 c 0.403578,0 0.733149,0.327257 0.733149,0.73315 v 13.799172 c 0,0.402423 -0.329571,0.731993 -0.733149,0.731993 H 76.41382 c -0.404734,0 -0.733148,-0.32957 -0.733148,-0.731993 V 69.66946 c 0,-0.405893 0.328414,-0.73315 0.733148,-0.73315 z m 0,-21.971363 h 13.799174 c 0.403578,0 0.733149,0.329571 0.733149,0.73315 v 13.800328 c 0,0.403579 -0.329571,0.731993 -0.733149,0.731993 H 76.41382 c -0.404734,0 -0.733148,-0.328414 -0.733148,-0.731993 V 47.698097 c 0,-0.403579 0.328414,-0.73315 0.733148,-0.73315 z m 0,-21.96905 h 13.799174 c 0.403578,0 0.733149,0.329571 0.733149,0.73315 v 13.799172 c 0,0.404735 -0.329571,0.73315 -0.733149,0.73315 H 76.41382 c -0.404734,0 -0.733148,-0.328415 -0.733148,-0.73315 V 25.729047 c 0,-0.403579 0.328414,-0.73315 0.733148,-0.73315 z M 54.443615,68.93631 h 13.800328 c 0.40358,0 0.733151,0.327257 0.733151,0.73315 v 13.799172 c 0,0.402423 -0.329571,0.731993 -0.733151,0.731993 H 54.443615 c -0.40358,0 -0.73315,-0.32957 -0.73315,-0.731993 V 69.66946 c 0,-0.405893 0.32957,-0.73315 0.73315,-0.73315 z m 0,-21.971363 h 13.800328 c 0.40358,0 0.733151,0.329571 0.733151,0.73315 v 13.800328 c 0,0.403579 -0.329571,0.731993 -0.733151,0.731993 H 54.443615 c -0.40358,0 -0.73315,-0.328414 -0.73315,-0.731993 V 47.698097 c 0,-0.403579 0.32957,-0.73315 0.73315,-0.73315 z m 0,-21.96905 h 13.800328 c 0.40358,0 0.733151,0.329571 0.733151,0.73315 v 13.799172 c 0,0.404735 -0.329571,0.73315 -0.733151,0.73315 H 54.443615 c -0.40358,0 -0.73315,-0.328415 -0.73315,-0.73315 V 25.729047 c 0,-0.403579 0.32957,-0.73315 0.73315,-0.73315 z M 32.472252,68.93631 h 13.799172 c 0.404735,0 0.73315,0.327257 0.73315,0.73315 v 13.799172 c 0,0.402423 -0.328415,0.731993 -0.73315,0.731993 H 32.472252 c -0.40358,0 -0.73315,-0.32957 -0.73315,-0.731993 V 69.66946 c 0,-0.405893 0.32957,-0.73315 0.73315,-0.73315 z m 0,-21.971363 h 13.799172 c 0.404735,0 0.73315,0.329571 0.73315,0.73315 v 13.800328 c 0,0.403579 -0.328415,0.731993 -0.73315,0.731993 H 32.472252 c -0.40358,0 -0.73315,-0.328414 -0.73315,-0.731993 V 47.698097 c 0,-0.403579 0.32957,-0.73315 0.73315,-0.73315 z"
     id="path431"
     style="stroke-width:0.999999" />
</svg>
