<?xml version="1.0" encoding="UTF-8" standalone="no"?>
<svg
   version="1.1"
   id="Layer_1"
   x="0px"
   y="0px"
   viewBox="0 0 123 108"
   xml:space="preserve"
   sodipodi:docname="group-icon.svg"
   width="123"
   height="108"
   inkscape:version="1.2.2 (1:1.2.2+202212051552+b0a8486541)"
   xmlns:inkscape="http://www.inkscape.org/namespaces/inkscape"
   xmlns:sodipodi="http://sodipodi.sourceforge.net/DTD/sodipodi-0.dtd"
   xmlns="http://www.w3.org/2000/svg"
   xmlns:svg="http://www.w3.org/2000/svg"><defs
     id="defs243" /><sodipodi:namedview
     id="namedview241"
     pagecolor="#ffffff"
     bordercolor="#000000"
     borderopacity="0.25"
     inkscape:showpageshadow="2"
     inkscape:pageopacity="0.0"
     inkscape:pagecheckerboard="0"
     inkscape:deskcolor="#d1d1d1"
     showgrid="true"
     inkscape:zoom="4.763056"
     inkscape:cx="61.095229"
     inkscape:cy="39.890356"
     inkscape:window-width="960"
     inkscape:window-height="953"
     inkscape:window-x="20"
     inkscape:window-y="20"
     inkscape:window-maximized="0"
     inkscape:current-layer="Layer_1"><inkscape:grid
       type="xygrid"
       id="grid362"
       originx="0"
       originy="0" /></sodipodi:namedview><style
     type="text/css"
     id="style234">.st0{fill-rule:evenodd;clip-rule:evenodd;}</style><g
     id="g238"
     transform="matrix(0.48410378,0,0,0.48410378,32.1219,35.239369)"
     style="fill:#000000;stroke-width:2.06567"><path
       class="st0"
       d="m 85.96,9.48 c 4.5,-0.31 9.34,0.41 12.33,2.16 3.41,1.99 5.42,5.48 5.42,11.01 v 4.84 c 0,2.17 -0.08,2.23 0.71,3.37 0.6,0.87 0.74,0.97 0.93,2.03 0.27,1.39 0.28,2.8 0.3,4.25 0.03,2.26 -0.83,2.91 -1.98,4.74 l -4.89,7.79 c -1.52,2.43 -2.9,3.91 -2.3,6.99 1.34,6.83 20.91,10.68 26.38,13.11 v 12.94 h -15.91 c 0,-2.44 0.9,-14.57 -0.45,-15.57 C 90.09,55.03 68.36,61.77 84.96,35.9 c 1.31,-2.1 1.4,-2.99 2.27,-5.43 1.61,-4.48 1.41,-13.97 -1.27,-20.99 z m -49.04,0 c -4.5,-0.31 -9.34,0.41 -12.33,2.16 -3.41,1.99 -5.42,5.48 -5.42,11.01 v 4.84 c 0,2.17 0.08,2.23 -0.71,3.37 -0.6,0.87 -0.73,0.97 -0.93,2.03 -0.27,1.39 -0.28,2.8 -0.3,4.25 -0.03,2.26 0.83,2.91 1.98,4.74 l 4.89,7.79 c 1.52,2.43 2.9,3.91 2.3,6.99 C 25.03,63.5 5.47,67.35 0,69.78 v 12.94 h 15.9 c 0,-2.44 -0.9,-14.57 0.45,-15.57 16.41,-12.11 38.14,-5.37 21.54,-31.24 -1.31,-2.1 -1.4,-2.99 -2.27,-5.43 -1.58,-4.49 -1.38,-13.98 1.3,-21 z M 20.05,82.72 V 69.83 c 6.17,-2.74 30.31,-8.8 31.82,-16.51 0.68,-3.47 -0.89,-5.15 -2.6,-7.89 l -5.52,-8.79 c -1.29,-2.07 -2.27,-2.8 -2.23,-5.35 0.02,-1.43 0.04,-2.85 0.25,-4.23 0.26,-1.76 0.48,-1.82 1.4,-3.24 0.62,-0.95 0.55,-1.24 0.55,-3.43 v -5.46 c 0,-6.31 2.32,-10.25 6.24,-12.49 5.73,-3.27 17.36,-3.27 23.06,0.07 3.84,2.25 6.12,6.18 6.12,12.42 v 5.46 c 0,2.46 -0.09,2.52 0.8,3.81 0.68,0.98 0.83,1.1 1.06,2.29 0.3,1.56 0.32,3.17 0.34,4.8 0.04,2.55 -0.93,3.29 -2.23,5.35 l -5.51,8.79 c -1.71,2.74 -3.28,4.42 -2.59,7.89 1.52,7.71 23.6,12.05 29.76,14.8 v 14.61 z"
       id="path236"
       style="clip-rule:evenodd;fill:#000000;fill-rule:evenodd;stroke-width:2.06567" /></g></svg>
