<?xml version="1.0" encoding="UTF-8" standalone="no"?>
<svg
   shape-rendering="geometricPrecision"
   text-rendering="geometricPrecision"
   image-rendering="optimizeQuality"
   fill-rule="evenodd"
   clip-rule="evenodd"
   viewBox="0 0 123 108"
   version="1.1"
   id="svg4"
   sodipodi:docname="hide-show-all-icon.svg"
   width="123"
   height="108"
   inkscape:version="1.2.2 (1:1.2.2+202212051552+b0a8486541)"
   xml:space="preserve"
   xmlns:inkscape="http://www.inkscape.org/namespaces/inkscape"
   xmlns:sodipodi="http://sodipodi.sourceforge.net/DTD/sodipodi-0.dtd"
   xmlns="http://www.w3.org/2000/svg"
   xmlns:svg="http://www.w3.org/2000/svg"><defs
     id="defs8" /><sodipodi:namedview
     id="namedview6"
     pagecolor="#ffffff"
     bordercolor="#000000"
     borderopacity="0.25"
     inkscape:showpageshadow="2"
     inkscape:pageopacity="0.0"
     inkscape:pagecheckerboard="0"
     inkscape:deskcolor="#d1d1d1"
     showgrid="true"
     inkscape:zoom="4.76"
     inkscape:cx="62.184874"
     inkscape:cy="63.865546"
     inkscape:window-width="1920"
     inkscape:window-height="953"
     inkscape:window-x="0"
     inkscape:window-y="0"
     inkscape:window-maximized="1"
     inkscape:current-layer="svg4"><inkscape:grid
       type="xygrid"
       id="grid291" /></sodipodi:namedview><path
     id="path2"
     style="fill:#000000;stroke-width:1"
     d="M 35.238281 25.609375 C 34.120131 25.609375 33.100274 26.069008 32.353516 26.810547 L 32.345703 26.818359 C 31.605464 27.561195 31.146484 28.581723 31.146484 29.701172 L 31.146484 80.375 C 31.146484 81.502241 31.610015 82.522124 32.347656 83.259766 C 33.090493 84.002601 34.122729 84.466797 35.238281 84.466797 L 61.134766 84.466797 C 60.099732 83.544745 59.126525 82.553206 58.222656 81.496094 C 57.982402 81.214283 57.775595 80.916504 57.605469 80.607422 L 35.238281 80.607422 C 35.182439 80.607422 35.123585 80.57671 35.078125 80.53125 C 35.033965 80.487095 35.005859 80.43084 35.005859 80.375 L 35.005859 29.701172 C 35.005859 29.634938 35.030699 29.576722 35.068359 29.539062 L 35.076172 29.53125 C 35.113832 29.49359 35.172051 29.46875 35.238281 29.46875 L 85.052734 29.46875 C 85.112476 29.46875 85.168081 29.496219 85.207031 29.542969 C 85.255081 29.589721 85.285156 29.646622 85.285156 29.701172 L 85.285156 64.933594 C 86.590317 65.193326 87.878979 65.54739 89.142578 65.990234 L 89.142578 29.701172 C 89.142578 28.588217 88.680323 27.558598 87.933594 26.818359 C 87.193354 26.07812 86.172185 25.609375 85.052734 25.609375 L 35.238281 25.609375 z M 44.560547 40.013672 C 43.19565 40.013672 42.087891 41.121432 42.087891 42.486328 C 42.087891 43.851224 43.19565 44.958984 44.560547 44.958984 C 45.925443 44.958984 47.033203 43.851224 47.033203 42.486328 C 47.033203 41.121432 45.925443 40.013672 44.560547 40.013672 z M 49.941406 40.332031 C 49.779073 40.332031 49.644531 40.467883 49.644531 40.632812 L 49.644531 44.339844 C 49.644531 44.504776 49.789462 44.638672 49.941406 44.638672 L 77.90625 44.638672 C 78.059492 44.638672 78.203125 44.495685 78.203125 44.339844 L 78.203125 40.632812 C 78.203125 40.476973 78.068583 40.332031 77.90625 40.332031 L 49.941406 40.332031 z M 44.560547 52.576172 C 43.19565 52.576172 42.087891 53.681978 42.087891 55.046875 C 42.087891 56.413069 43.19565 57.521484 44.560547 57.521484 C 45.925443 57.521484 47.033203 56.413069 47.033203 55.046875 C 47.033203 53.681978 45.925443 52.576172 44.560547 52.576172 z M 49.941406 52.894531 C 49.779073 52.894531 49.644531 53.028429 49.644531 53.193359 L 49.644531 56.900391 C 49.644531 57.06532 49.785566 57.201172 49.941406 57.201172 L 77.90625 57.201172 C 78.063389 57.201172 78.203125 57.058827 78.203125 56.900391 L 78.203125 53.193359 C 78.203125 53.034922 78.068583 52.894531 77.90625 52.894531 L 49.941406 52.894531 z M 44.560547 65.183594 C 43.19565 65.183594 42.087891 66.291354 42.087891 67.65625 C 42.087891 69.022445 43.19565 70.128906 44.560547 70.128906 C 45.925443 70.128906 47.033203 69.022445 47.033203 67.65625 C 47.033203 66.291354 45.925443 65.183594 44.560547 65.183594 z M 49.941406 65.501953 C 49.777747 65.503364 49.645931 65.637122 49.644531 65.800781 L 49.644531 69.509766 C 49.644531 69.673397 49.786864 69.808594 49.941406 69.808594 L 63.947266 69.808594 C 66.310834 68.23721 68.749593 66.972292 70.326172 66.339844 C 71.127447 66.019074 71.929847 65.739609 72.732422 65.501953 L 49.941406 65.501953 z M 90.267578 67.007812 L 69.580078 87.697266 L 71.232422 89.349609 L 91.919922 68.660156 L 90.267578 67.007812 z M 80.582031 69.0625 C 80.351653 69.058954 80.120514 69.059863 79.890625 69.064453 C 74.971752 69.162563 70.20183 71.116238 66.183594 74.773438 C 65.295012 75.582412 64.436252 76.48177 63.617188 77.470703 C 63.285578 77.825014 63.255542 78.377939 63.566406 78.769531 C 64.958703 80.513338 66.547589 81.996907 68.269531 83.212891 C 69.005624 83.732864 69.765103 84.203414 70.544922 84.625 L 72.021484 83.150391 C 71.124775 82.69825 70.251628 82.177669 69.414062 81.585938 C 68.054 80.625596 66.785672 79.481545 65.644531 78.158203 C 66.244395 77.47705 66.871999 76.838948 67.523438 76.246094 C 71.180637 72.917136 75.497713 71.139361 79.929688 71.050781 C 81.203975 71.025274 82.48934 71.139721 83.773438 71.396484 L 85.429688 69.742188 C 83.817768 69.312719 82.194676 69.087319 80.582031 69.0625 z M 90.742188 71.945312 L 89.279297 73.40625 C 90.586941 74.110949 91.872315 74.976283 93.121094 76.005859 C 93.928667 76.671595 94.724632 77.410308 95.505859 78.224609 C 94.574664 79.434144 93.536694 80.484439 92.416016 81.378906 C 89.132751 84.000363 85.141954 85.292607 81.099609 85.310547 C 79.954545 85.315592 78.805473 85.219102 77.666016 85.021484 L 76.671875 86.013672 C 78.361299 86.415916 79.393609 87.304475 81.107422 87.296875 C 85.588448 87.276693 90.012514 85.844589 93.654297 82.9375 C 95.10994 81.775054 96.439697 80.379468 97.597656 78.744141 C 97.876282 78.369649 97.861156 77.838423 97.535156 77.480469 C 96.524641 76.369883 95.471522 75.366573 94.384766 74.470703 C 93.199896 73.493544 91.981995 72.653656 90.742188 71.945312 z M 80.572266 72.09375 C 78.89209 72.09375 77.370307 72.775616 76.269531 73.876953 C 75.168476 74.97829 74.488281 76.499231 74.488281 78.179688 C 74.488281 78.926432 74.622747 79.641484 74.869141 80.302734 L 76.462891 78.707031 C 76.440731 78.53408 76.429688 78.358803 76.429688 78.179688 C 76.429688 77.035743 76.89303 75.999547 77.642578 75.25 C 78.392125 74.500452 79.428323 74.037109 80.572266 74.037109 C 80.751104 74.037109 80.92805 74.048163 81.101562 74.070312 L 82.695312 72.474609 C 82.033782 72.228497 81.31901 72.09375 80.572266 72.09375 z M 86.367188 76.320312 L 84.708984 77.976562 C 84.712284 78.043836 84.714844 78.112138 84.714844 78.179688 C 84.714844 79.32335 84.251501 80.357875 83.501953 81.107422 C 82.752406 81.856969 81.716207 82.320312 80.572266 82.320312 C 80.50471 82.320312 80.437804 82.319906 80.371094 82.316406 L 78.712891 83.972656 C 79.299019 84.16102 79.923908 84.263672 80.572266 84.263672 C 82.25216 84.263672 83.773664 83.581524 84.875 82.480469 C 85.975776 81.379413 86.65625 79.859862 86.65625 78.179688 C 86.65625 77.53105 86.554993 76.906159 86.367188 76.320312 z " /></svg>
