<?xml version="1.0" encoding="UTF-8" standalone="no"?>
<svg
   id="Layer_1"
   data-name="Layer 1"
   viewBox="0 0 123 108"
   version="1.1"
   sodipodi:docname="homepage-icon.svg"
   width="123"
   height="108"
   inkscape:version="1.2.2 (1:1.2.2+202212051552+b0a8486541)"
   xmlns:inkscape="http://www.inkscape.org/namespaces/inkscape"
   xmlns:sodipodi="http://sodipodi.sourceforge.net/DTD/sodipodi-0.dtd"
   xmlns="http://www.w3.org/2000/svg"
   xmlns:svg="http://www.w3.org/2000/svg"
   xmlns:rdf="http://www.w3.org/1999/02/22-rdf-syntax-ns#"
   xmlns:cc="http://creativecommons.org/ns#"
   xmlns:dc="http://purl.org/dc/elements/1.1/">
  <sodipodi:namedview
     id="namedview577"
     pagecolor="#ffffff"
     bordercolor="#000000"
     borderopacity="0.25"
     inkscape:showpageshadow="2"
     inkscape:pageopacity="0.0"
     inkscape:pagecheckerboard="0"
     inkscape:deskcolor="#d1d1d1"
     showgrid="true"
     inkscape:zoom="4.76"
     inkscape:cx="63.02521"
     inkscape:cy="53.361345"
     inkscape:window-width="960"
     inkscape:window-height="953"
     inkscape:window-x="20"
     inkscape:window-y="20"
     inkscape:window-maximized="0"
     inkscape:current-layer="Layer_1">
    <inkscape:grid
       type="xygrid"
       id="grid698" />
  </sodipodi:namedview>
  <defs
     id="defs570">
    <style
       id="style568">.cls-1{fill-rule:evenodd;}</style>
  </defs>
  <title
     id="title572">homepage</title>
  <path
     class="cls-1"
     d="M 36.616836,63.543424 58.6318,41.517585 c 1.163547,-1.163547 1.310349,-1.212481 2.517394,0 L 83.104352,63.543424 V 85.634508 H 66.792942 V 70.709569 A 1.8377521,1.8377521 0 0 0 64.960626,68.877255 H 54.771433 a 1.8377521,1.8377521 0 0 0 -1.832315,1.832314 V 85.634508 H 36.62771 V 63.543424 Z m 22.553241,-39.4138 -32.715249,30.719819 8.06871,4.235529 23.107829,-23.303566 c 1.979117,-1.989991 2.000866,-2.033488 3.963672,-0.08699 l 23.602605,23.379682 8.068713,-4.235529 -32.764182,-30.75788 c -0.587211,-0.543713 -0.674205,-0.614396 -1.332098,0.04894 z"
     id="path574"
     style="stroke-width:0.543713" />
  <metadata
     id="metadata696">
    <rdf:RDF>
      <cc:Work
         rdf:about="">
        <dc:title>homepage</dc:title>
      </cc:Work>
    </rdf:RDF>
  </metadata>
</svg>
