<?xml version="1.0" encoding="UTF-8" standalone="no"?>
<svg
   version="1.1"
   id="Layer_1"
   x="0px"
   y="0px"
   width="123"
   height="108"
   viewBox="0 0 123 108"
   enable-background="new 0 0 96.108 122.88"
   xml:space="preserve"
   sodipodi:docname="lock-icon.svg"
   inkscape:version="1.2.2 (1:1.2.2+202212051552+b0a8486541)"
   xmlns:inkscape="http://www.inkscape.org/namespaces/inkscape"
   xmlns:sodipodi="http://sodipodi.sourceforge.net/DTD/sodipodi-0.dtd"
   xmlns="http://www.w3.org/2000/svg"
   xmlns:svg="http://www.w3.org/2000/svg"><defs
     id="defs9" /><sodipodi:namedview
     id="namedview7"
     pagecolor="#ffffff"
     bordercolor="#000000"
     borderopacity="0.25"
     inkscape:showpageshadow="2"
     inkscape:pageopacity="0.0"
     inkscape:pagecheckerboard="0"
     inkscape:deskcolor="#d1d1d1"
     showgrid="true"
     inkscape:zoom="4.76"
     inkscape:cx="44.117647"
     inkscape:cy="47.689076"
     inkscape:window-width="960"
     inkscape:window-height="953"
     inkscape:window-x="20"
     inkscape:window-y="20"
     inkscape:window-maximized="0"
     inkscape:current-layer="Layer_1"><inkscape:grid
       type="xygrid"
       id="grid238"
       originx="0"
       originy="0" /></sodipodi:namedview><g
     id="g4"
     transform="matrix(0.55099939,0,0,0.55100098,33.756,17.23838)"
     style="stroke-width:1.81488"><path
       fill-rule="evenodd"
       clip-rule="evenodd"
       d="m 2.892,56.036 h 8.959 V 54.961 37.117 c 0,-10.205 4.177,-19.484 10.898,-26.207 V 10.901 C 29.473,4.177 38.754,0 48.966,0 59.17,0 68.449,4.177 75.173,10.901 l 0.01,0.009 c 6.721,6.723 10.898,16.002 10.898,26.207 v 17.844 1.075 h 7.136 c 1.59,0 2.892,1.302 2.892,2.891 v 61.062 c 0,1.589 -1.302,2.891 -2.892,2.891 H 2.892 C 1.302,122.88 0,121.578 0,119.989 V 58.927 c 0,-1.589 1.302,-2.891 2.892,-2.891 z m 23.379,0 h 45.387 v -1.075 -18.05 c 0,-6.24 -2.554,-11.917 -6.662,-16.03 l -0.005,0.004 c -4.111,-4.114 -9.787,-6.669 -16.025,-6.669 -6.241,0 -11.917,2.554 -16.033,6.665 -4.109,4.113 -6.662,9.79 -6.662,16.03 v 18.051 z m 22.878,33.412 4.581,21.139 -12.557,0.053 3.685,-21.423 c -3.431,-1.1 -5.918,-4.315 -5.918,-8.111 0,-4.701 3.81,-8.511 8.513,-8.511 4.698,0 8.511,3.81 8.511,8.511 0,4.12 -2.928,7.557 -6.815,8.342 z"
       id="path2"
       style="stroke-width:2.94078" /></g></svg>
