<?xml version="1.0" encoding="UTF-8" standalone="no"?>
<svg
   shape-rendering="geometricPrecision"
   text-rendering="geometricPrecision"
   image-rendering="optimizeQuality"
   fill-rule="evenodd"
   clip-rule="evenodd"
   viewBox="0 0 123 108"
   version="1.1"
   id="svg433"
   sodipodi:docname="rename-account.svg"
   width="123"
   height="108"
   inkscape:version="1.2.2 (1:1.2.2+202305151914+b0a8486541)"
   xmlns:inkscape="http://www.inkscape.org/namespaces/inkscape"
   xmlns:sodipodi="http://sodipodi.sourceforge.net/DTD/sodipodi-0.dtd"
   xmlns="http://www.w3.org/2000/svg"
   xmlns:svg="http://www.w3.org/2000/svg">
  <defs
     id="defs437" />
  <sodipodi:namedview
     id="namedview435"
     pagecolor="#ffffff"
     bordercolor="#000000"
     borderopacity="0.25"
     inkscape:showpageshadow="2"
     inkscape:pageopacity="0.0"
     inkscape:pagecheckerboard="0"
     inkscape:deskcolor="#d1d1d1"
     showgrid="true"
     showguides="false"
     inkscape:zoom="4.76"
     inkscape:cx="41.806723"
     inkscape:cy="46.848739"
     inkscape:window-width="1920"
     inkscape:window-height="953"
     inkscape:window-x="0"
     inkscape:window-y="0"
     inkscape:window-maximized="1"
     inkscape:current-layer="svg433">
    <inkscape:grid
       type="xygrid"
       id="grid556" />
  </sodipodi:namedview>
  <path
     fill-rule="evenodd"
     clip-rule="evenodd"
     d="M 8.1327419,1.8719502e-8 H 114.37998 c 2.19866,0 3.99571,1.810994781280498 3.99571,4.024536181280498 V 74.487853 H 4.1379551 V 4.0245362 C 4.1379551,1.8109948 5.9340752,1.8719502e-8 8.1327419,1.8719502e-8 Z M 14.708284,9.3645541 H 91.539833 V 20.563344 H 14.708284 Z M 81.698359,44.370303 h 26.107001 v 6.20275 H 81.698359 Z m -19.941396,0 h 14.612534 v 6.20275 H 61.756963 Z m 0,13.971992 h 46.048397 v 6.200891 H 61.756963 Z M 60.664602,30.401099 H 107.80536 V 36.60292 H 60.664602 Z m -45.956318,34.72313 v -6.358934 c 3.402588,-1.514431 13.819527,-4.321101 14.313181,-8.488806 0.109701,-0.940825 -2.108489,-4.595353 -2.616088,-6.313381 -0.638682,-1.020776 -0.98266,-1.383347 -0.965926,-2.64026 0.0084,-0.708407 0.01952,-1.403799 0.119927,-2.084317 0.131084,-0.868311 0.103194,-0.89713 0.558731,-1.596241 0.474132,-0.727001 0.270534,-3.383995 0.270534,-4.385248 0,-9.972557 17.473125,-9.974417 17.473125,0 0,1.260631 -0.289127,3.577366 0.396039,4.568392 0.332821,0.483428 0.271463,0.539208 0.383953,1.129548 0.147818,0.771625 0.158044,1.563703 0.171059,2.367866 0.01673,1.256913 -0.327243,1.619484 -0.965926,2.64026 -0.620089,1.806346 -2.97494,5.22009 -2.774131,6.242726 0.748383,3.804205 10.41229,6.360794 13.455096,7.713462 v 7.204933 z M 96.249535,9.3645541 H 107.80536 V 20.563344 H 96.249535 Z"
     id="path488"
     style="stroke-width:1.57245"
     transform="matrix(0.79746442,0,0,0.79746442,13.724128,24.723984)" />
</svg>
