<?xml version="1.0" encoding="UTF-8" standalone="no"?>
<svg
   shape-rendering="geometricPrecision"
   text-rendering="geometricPrecision"
   image-rendering="optimizeQuality"
   fill-rule="evenodd"
   clip-rule="evenodd"
   viewBox="0 0 123 108"
   version="1.1"
   id="svg4"
   sodipodi:docname="user-data-icon.svg"
   width="123"
   height="108"
   inkscape:version="1.2.2 (1:1.2.2+202212051552+b0a8486541)"
   xmlns:inkscape="http://www.inkscape.org/namespaces/inkscape"
   xmlns:sodipodi="http://sodipodi.sourceforge.net/DTD/sodipodi-0.dtd"
   xmlns="http://www.w3.org/2000/svg"
   xmlns:svg="http://www.w3.org/2000/svg">
  <defs
     id="defs8" />
  <sodipodi:namedview
     id="namedview6"
     pagecolor="#ffffff"
     bordercolor="#000000"
     borderopacity="0.25"
     inkscape:showpageshadow="2"
     inkscape:pageopacity="0.0"
     inkscape:pagecheckerboard="0"
     inkscape:deskcolor="#d1d1d1"
     showgrid="false"
     inkscape:zoom="4.758885"
     inkscape:cx="65.561576"
     inkscape:cy="54.84478"
     inkscape:window-width="1920"
     inkscape:window-height="953"
     inkscape:window-x="0"
     inkscape:window-y="0"
     inkscape:window-maximized="1"
     inkscape:current-layer="svg4" />
  <path
     fill-rule="nonzero"
     d="m 16.133308,19.420159 h 90.103642 c 1.9478,0 3.72445,0.800713 5.01006,2.086336 1.29582,1.285624 2.09653,3.066344 2.09653,5.020247 v 53.262699 c 0,1.949828 -0.80276,3.730549 -2.08837,5.016172 l -0.13855,0.126321 c -1.27543,1.212276 -2.99707,1.962053 -4.87967,1.962053 H 16.133308 c -1.945754,0 -3.724437,-0.800713 -5.014134,-2.090411 C 9.8274379,83.522027 9.0267245,81.745381 9.0267245,79.789441 V 26.526742 c 0,-1.947791 0.8007134,-3.722399 2.0863365,-5.012097 l 0.0082,-0.0081 c 1.29377,-1.287658 3.06634,-2.086333 5.012094,-2.086333 z M 63.583197,42.57564 c -0.953521,0 -1.727747,-1.030944 -1.727747,-2.302306 0,-1.273397 0.774226,-2.304341 1.727747,-2.304341 h 24.532789 c 0.953521,0 1.727747,1.030944 1.727747,2.304341 0,1.271362 -0.774226,2.302306 -1.727747,2.302306 z m 0,24.848592 c -0.953521,0 -1.727747,-1.030944 -1.727747,-2.302306 0,-1.271361 0.774226,-2.304341 1.727747,-2.304341 H 100.1552 c 0.95353,0 1.72775,1.03298 1.72775,2.304341 0,1.271362 -0.77422,2.302306 -1.72775,2.302306 z m 0,-12.424296 c -0.953521,0 -1.727747,-1.030944 -1.727747,-2.302306 0,-1.271361 0.774226,-2.302304 1.727747,-2.302304 h 34.204507 c 0.95352,0 1.727747,1.030943 1.727747,2.302304 0,1.271362 -0.774227,2.302306 -1.727747,2.302306 z m -18.990958,4.054501 c 1.929454,1.662549 5.598879,1.163376 7.660766,2.314529 0.656056,0.366739 1.250988,0.833312 1.727748,1.46288 1.181714,1.560678 1.273399,2.13116 1.723672,4.036164 -0.105947,1.122628 -0.743665,1.770534 -1.996689,1.866294 h -28.76251 c -1.253024,-0.09576 -1.890741,-0.743666 -1.996688,-1.866294 0.450273,-1.905004 0.541959,-2.475486 1.72571,-4.036164 0.47676,-0.631605 1.069655,-1.096141 1.725709,-1.46288 2.029288,-1.130778 5.554055,-0.639755 7.565007,-2.235069 0.303578,-0.658092 0.611231,-1.591239 0.804788,-2.180059 l 0.0815,-0.242455 C 35.07537,56.041066 33.751035,54.730994 33.306874,54.026041 L 31.660621,51.40997 c -0.601045,-0.89851 -0.91481,-1.719597 -0.933147,-2.391952 -0.01018,-0.317841 0.04483,-0.605119 0.160958,-0.855724 0.122246,-0.264866 0.311728,-0.486948 0.566408,-0.658092 0.118171,-0.07946 0.252642,-0.146695 0.399338,-0.203744 -0.107985,-1.418057 -0.146696,-2.497899 -0.07742,-3.995416 0.03464,-0.354514 0.101868,-0.711065 0.201707,-1.065579 0.60308,-2.153572 2.453074,-3.704063 4.567935,-4.433465 1.024831,-0.354514 0.629568,-1.200051 1.664587,-1.143003 2.457149,0.134471 6.248821,1.71756 7.703552,3.396409 2.041512,2.353241 1.513816,4.539412 1.446581,7.412199 v -0.0021 c 0.456386,0.138546 0.74774,0.427863 0.867948,0.898511 0.132434,0.517509 -0.01018,1.250986 -0.450273,2.247294 h -0.0021 c -0.0081,0.01834 -0.0163,0.03667 -0.02852,0.05297 l -1.874443,3.088756 c -0.723291,1.191901 -1.456769,2.38584 -2.436776,3.302687 -0.04686,0.04483 -0.09576,0.08761 -0.144658,0.130396 0.14262,0.197631 0.307653,0.440086 0.48491,0.700878 0.25468,0.374889 0.535846,0.786451 0.814975,1.163377 z M 106.23695,23.564308 H 16.133308 c -0.817012,0 -1.55864,0.332102 -2.090411,0.863873 l -0.0082,0.0082 a 2.9518399,2.9518399 0 0 0 -0.863871,2.090408 v 53.262699 c 0,0.808863 0.336177,1.55049 0.874061,2.088374 a 2.9155735,2.9155735 0 0 0 2.088374,0.872023 H 106.2369 c 0.77015,0 1.47715,-0.299503 2.00688,-0.788488 l 0.0815,-0.08557 c 0.5379,-0.537883 0.87408,-1.279511 0.87408,-2.086336 V 26.526742 c 0,-0.8109 -0.33618,-1.552527 -0.87408,-2.090411 a 2.9322805,2.9322805 0 0 0 -2.08838,-0.872023 z"
     id="path2"
     style="stroke-width:0.203744" />
</svg>
