<?xml version="1.0" encoding="UTF-8" standalone="no"?>
<svg
   shape-rendering="geometricPrecision"
   text-rendering="geometricPrecision"
   image-rendering="optimizeQuality"
   fill-rule="evenodd"
   clip-rule="evenodd"
   viewBox="0 0 123 108"
   version="1.1"
   id="svg4"
   sodipodi:docname="view-show-all-icon.svg"
   width="123"
   height="108"
   inkscape:version="1.2.2 (1:1.2.2+202212051552+b0a8486541)"
   xmlns:inkscape="http://www.inkscape.org/namespaces/inkscape"
   xmlns:sodipodi="http://sodipodi.sourceforge.net/DTD/sodipodi-0.dtd"
   xmlns="http://www.w3.org/2000/svg"
   xmlns:svg="http://www.w3.org/2000/svg">
  <defs
     id="defs8" />
  <sodipodi:namedview
     id="namedview6"
     pagecolor="#ffffff"
     bordercolor="#000000"
     borderopacity="0.25"
     inkscape:showpageshadow="2"
     inkscape:pageopacity="0.0"
     inkscape:pagecheckerboard="0"
     inkscape:deskcolor="#d1d1d1"
     showgrid="true"
     inkscape:zoom="4.76"
     inkscape:cx="60.294118"
     inkscape:cy="34.663866"
     inkscape:window-width="960"
     inkscape:window-height="953"
     inkscape:window-x="20"
     inkscape:window-y="20"
     inkscape:window-maximized="0"
     inkscape:current-layer="svg4">
    <inkscape:grid
       type="xygrid"
       id="grid291" />
  </sodipodi:namedview>
  <path
     d="m 80.544633,73.50219 c 1.285678,0 2.454478,0.524662 3.297311,1.367495 a 4.6545465,4.6545465 0 0 1 1.364898,3.297312 c 0,1.283081 -0.523363,2.450581 -1.364898,3.293415 a 4.6451961,4.6451961 0 0 1 -3.297311,1.367494 c -1.28438,0 -2.449283,-0.522063 -3.294713,-1.367494 -0.845433,-0.842834 -1.368795,-2.010334 -1.368795,-3.293415 0,-1.285679 0.522064,-2.451881 1.367495,-3.296013 0.848029,-0.848029 2.011633,-1.368794 3.296013,-1.368794 z M 61.13478,84.466822 H 35.238094 c -1.115553,0 -2.146693,-0.463624 -2.88953,-1.20646 C 31.610922,82.52272 31.146,81.501969 31.146,80.374727 V 29.702104 c 0,-1.11945 0.459727,-2.1415 1.199967,-2.884336 l 0.0078,-0.0078 C 33.100526,26.068428 34.119979,25.61 35.23813,25.61 h 49.814206 c 1.119452,0 2.140202,0.467519 2.880442,1.207759 0.74673,0.740239 1.21036,1.771379 1.21036,2.884335 v 36.288579 c -1.2636,-0.442845 -2.55318,-0.797381 -3.858342,-1.057114 V 29.702104 c 0,-0.05455 -0.02987,-0.112984 -0.07792,-0.159736 -0.03895,-0.04675 -0.0948,-0.07273 -0.154542,-0.07273 H 35.238093 c -0.06623,0 -0.124673,0.02468 -0.162333,0.06234 l -0.0078,0.0078 c -0.03766,0.03766 -0.06234,0.0961 -0.06234,0.162334 v 50.672623 c 0,0.05584 0.02857,0.112984 0.07273,0.157139 0.04546,0.04546 0.103893,0.07532 0.159735,0.07532 h 22.368212 c 0.170126,0.309082 0.375315,0.606477 0.615569,0.888288 0.90387,1.057113 1.87787,2.049293 2.912905,2.971346 z M 49.941584,40.332978 h 27.964161 c 0.162333,0 0.297394,0.144152 0.297394,0.299992 v 3.707689 c 0,0.155841 -0.144152,0.298693 -0.297394,0.298693 H 49.941584 c -0.151944,0 -0.297395,-0.133761 -0.297395,-0.298693 V 40.63297 c 0,-0.16493 0.135062,-0.299992 0.297395,-0.299992 z m 0,25.169433 h 22.791577 c -0.802576,0.237656 -1.605151,0.51687 -2.406427,0.83764 -1.57658,0.632449 -4.016772,1.89735 -6.380343,3.468735 H 49.941584 c -0.154542,0 -0.297395,-0.135061 -0.297395,-0.298693 v -3.710287 a 0.29999169,0.29999169 0 0 1 0.297395,-0.297395 z M 44.559915,65.18294 c 1.364897,0 2.472659,1.107762 2.472659,2.472659 0,1.366196 -1.107762,2.472659 -2.472659,2.472659 -1.364898,0 -2.472659,-1.106463 -2.472659,-2.472659 0,-1.364897 1.107761,-2.472659 2.472659,-2.472659 z m 5.381669,-12.287971 h 27.964161 c 0.162333,0 0.297394,0.140255 0.297394,0.298693 v 3.707689 c 0,0.158437 -0.140255,0.299992 -0.297394,0.299992 H 49.941584 c -0.15584,0 -0.297395,-0.135062 -0.297395,-0.299992 v -3.707689 c 0,-0.164931 0.135062,-0.298693 0.297395,-0.298693 z m -5.381669,-0.319473 c 1.364897,0 2.472659,1.106464 2.472659,2.471362 0,1.366195 -1.107762,2.473957 -2.472659,2.473957 -1.364898,0 -2.472659,-1.107762 -2.472659,-2.473957 0,-1.364898 1.107761,-2.471362 2.472659,-2.471362 z m 0,-12.561989 c 1.364897,0 2.472659,1.107762 2.472659,2.472659 0,1.364897 -1.107762,2.472659 -2.472659,2.472659 -1.364898,0 -2.472659,-1.107762 -2.472659,-2.472659 0,-1.364897 1.107761,-2.472659 2.472659,-2.472659 z m 19.199468,37.353512 c 4.111574,-4.971291 9.442596,-8.951701 16.08527,-9.089359 7.049155,-0.14675 12.912625,4.062225 17.503405,9.10754 a 1.1169821,1.1169821 0 0 1 0.0623,1.424636 c -3.8817,5.475173 -10.00881,9.202344 -16.83329,9.2426 -7.024481,0.04028 -12.576275,-3.824568 -16.883948,-9.223121 -0.35064,-0.441545 -0.31168,-1.067502 0.06623,-1.462296 z m 2.649278,0.775302 c 3.851841,4.480396 8.155617,7.329667 14.159348,7.295903 5.762179,-0.03377 10.663339,-2.720704 14.121699,-7.219281 -4.06484,-4.245337 -8.73613,-7.454339 -14.800901,-7.329667 -5.669973,0.119477 -9.838689,3.111602 -13.480146,7.253045 z m 12.821722,-3.738856 c 0.999973,0 1.807743,0.810366 1.807743,1.80904 0,0.998674 -0.80777,1.809041 -1.807743,1.809041 -0.997374,0 -1.807742,-0.810367 -1.807742,-1.809041 0,-0.998674 0.810368,-1.80904 1.807742,-1.80904 z"
     id="path2"
     style="fill:#000000;stroke-width:1" />
</svg>
