<?xml version="1.0" encoding="UTF-8" standalone="no"?>
<svg
   id="Layer_1"
   data-name="Layer 1"
   viewBox="0 0 113.22 122.88"
   version="1.1"
   sodipodi:docname="application-file-icon.svg"
   xml:space="preserve"
   inkscape:version="1.2.2 (1:1.2.2+202212051552+b0a8486541)"
   xmlns:inkscape="http://www.inkscape.org/namespaces/inkscape"
   xmlns:sodipodi="http://sodipodi.sourceforge.net/DTD/sodipodi-0.dtd"
   xmlns="http://www.w3.org/2000/svg"
   xmlns:svg="http://www.w3.org/2000/svg"><sodipodi:namedview
     id="namedview11"
     pagecolor="#ffffff"
     bordercolor="#000000"
     borderopacity="0.25"
     inkscape:showpageshadow="2"
     inkscape:pageopacity="0.0"
     inkscape:pagecheckerboard="0"
     inkscape:deskcolor="#d1d1d1"
     showgrid="false"
     inkscape:zoom="3.2063803"
     inkscape:cx="33.99472"
     inkscape:cy="48.029237"
     inkscape:window-width="1920"
     inkscape:window-height="953"
     inkscape:window-x="0"
     inkscape:window-y="0"
     inkscape:window-maximized="1"
     inkscape:current-layer="Layer_1" /><defs
     id="defs4"><style
       id="style2">.cls-1{fill-rule:evenodd;}</style><style
       id="style322">.cls-1{fill-rule:evenodd;}</style></defs><title
     id="title6">encrypted-file</title><style
     type="text/css"
     id="style857">.st0{fill-rule:evenodd;clip-rule:evenodd;}</style><path
     id="path859"
     style="display:inline;stroke-width:0.449323"
     class="st0"
     d="m 58.999114,71.114922 h 50.292696 c 1.35247,0 2.4578,1.105334 2.4578,2.457795 v 41.598303 c 0,1.35246 -1.10533,2.4578 -2.4578,2.4578 H 58.999114 c -1.352462,0 -2.457796,-1.10534 -2.457796,-2.4578 V 73.572717 c 0,-1.352461 1.105334,-2.457795 2.457796,-2.457795 z m 11.848642,17.321393 7.993452,8.276526 0.961551,0.957057 -0.952565,0.970537 -8.07433,8.559605 -2.278066,-2.24661 7.121766,-7.256572 -7.031902,-6.991463 z M 98.822594,106.79564 H 81.114782 v -3.07336 H 98.822594 Z M 73.700956,75.531765 c 1.433339,0 2.597085,1.163746 2.597085,2.597086 0,1.43334 -1.163746,2.597085 -2.597085,2.597085 -1.43334,0 -2.597086,-1.163745 -2.597086,-2.597085 0,-1.43334 1.163746,-2.597086 2.597086,-2.597086 z m -8.644972,0 c 1.43334,0 2.597087,1.163746 2.597087,2.597086 0,1.43334 -1.163747,2.597085 -2.597087,2.597085 -1.433338,0 -2.597085,-1.163745 -2.597085,-2.597085 0,-1.43334 1.159253,-2.597086 2.597085,-2.597086 z m -5.149238,-1.986008 h 48.486414 c 0.51673,0 0.93909,0.422364 0.93909,0.939086 v 8.231593 H 58.967661 v -8.231593 c 0,-0.516722 0.422363,-0.939086 0.939085,-0.939086 z m -0.416736,-62.075748 19.59,18.35 h -19.59 z m 30.51,20.979999 c 0.0017,-1.459105 -0.966322,-2.741655 -2.37,-3.139999 L 58.74001,1.2000085 C 58.129156,0.43938411 57.205555,-0.00217813 56.23001,8.5324846e-6 H 5.8700104 C 2.6297172,-0.005521 5.6676022e-6,2.6197106 1.0367693e-5,5.8600085 V 106.25001 c -0.0029344777,1.55733 0.616265712307,3.05133 1.720000032307,4.15 1.1046352,1.09356 2.5956199,1.70792 4.15,1.71 H 45.39001 v -6.55 H 6.5500104 V 6.5600085 H 52.94001 V 33.080008 c 0,1.817017 1.472983,3.29 3.29,3.29 h 27.2 v 21.450001 h 6.57 z m -73.17833,1.211317 c -0.715972,0.02491 -1.42701,-0.127454 -2.069909,-0.443552 -0.541308,-0.274288 -0.975839,-0.721059 -1.234988,-1.269776 -0.283714,-0.621535 -0.420602,-1.30002 -0.400066,-1.982939 v -6.227122 c -0.02472,-0.728061 0.121225,-1.451807 0.426157,-2.113395 0.275998,-0.559426 0.719958,-1.01859 1.269777,-1.313262 0.629803,-0.309157 1.325058,-0.461337 2.026424,-0.443552 h 2.96571 c 0.673861,-0.02129 1.341832,0.131477 1.939453,0.443552 0.528622,0.302777 0.950828,0.761433 1.208897,1.313262 0.290498,0.665683 0.43009,1.3874 0.408763,2.113395 v 6.227122 c 0.05811,0.987449 -0.272815,1.958385 -0.921892,2.704798 -0.703598,0.6917 -1.667818,1.052097 -2.652615,0.991469 z M 16.7521,96.854442 c -0.715244,0.02766 -1.426244,-0.12176 -2.06991,-0.434855 -0.539349,-0.276942 -0.973128,-0.722946 -1.234988,-1.269777 -0.281947,-0.622103 -0.418751,-1.300181 -0.400066,-1.982938 V 86.93975 c -0.02479,-0.730871 0.121123,-1.457458 0.426158,-2.122092 0.273552,-0.558967 0.718405,-1.016008 1.269776,-1.304565 0.629803,-0.309157 1.325059,-0.461337 2.026424,-0.443552 h 2.96571 c 0.673861,-0.02129 1.341832,0.131477 1.939453,0.443552 0.530193,0.296824 0.953234,0.753343 1.208897,1.304565 0.290382,0.66878 0.429941,1.393297 0.408764,2.122092 v 6.227122 c 0.05718,0.987321 -0.273634,1.957917 -0.921893,2.704798 -0.694662,0.677017 -1.64044,1.033258 -2.609129,0.982772 z m 0.86971,-3.174441 h 1.095834 c 0.273805,0.01635 0.543797,-0.07053 0.756647,-0.243519 0.201344,-0.222176 0.299288,-0.519165 0.269611,-0.817527 v -5.313927 c 0.04649,-0.314264 -0.04911,-0.63293 -0.260913,-0.86971 -0.173937,-0.141745 -0.39323,-0.215872 -0.617494,-0.20873 h -1.348051 c -0.254972,-0.02108 -0.506292,0.07118 -0.68707,0.252215 -0.168227,0.234591 -0.248301,0.521009 -0.226125,0.808831 v 5.296532 c -0.178371,0.640142 0.398004,1.235736 1.043652,1.078441 z m 10.332152,3.070076 V 86.426621 h -2.15688 v -2.261246 l 2.556947,-1.095834 h 3.139652 v 13.680536 z m 10.175606,0.104365 c -0.717975,0.02687 -1.431621,-0.122395 -2.078603,-0.434855 -0.537273,-0.276898 -0.968279,-0.723181 -1.226291,-1.269777 -0.284939,-0.621407 -0.424723,-1.299503 -0.408763,-1.982938 V 86.93975 c -0.02206,-0.731558 0.126828,-1.458177 0.434854,-2.122092 0.270995,-0.560763 0.716541,-1.018517 1.269777,-1.304565 0.62887,-0.311822 1.324793,-0.46415 2.026424,-0.443552 h 2.957013 c 0.676634,-0.02122 1.347397,0.131497 1.94815,0.443552 0.529604,0.294909 0.95037,0.752263 1.2002,1.304565 0.297585,0.666773 0.440308,1.392282 0.41746,2.122092 v 6.227122 c 0.05258,0.986686 -0.277659,1.955603 -0.921892,2.704798 -0.707164,0.690854 -1.674864,1.048209 -2.661312,0.982772 z m 0.869709,-3.174441 H 40.1299 c 0.273377,0.01304 0.54222,-0.0734 0.756648,-0.243519 0.194493,-0.225707 0.288696,-0.520878 0.260913,-0.817527 v -5.313927 c 0.04409,-0.312627 -0.04771,-0.629177 -0.252216,-0.86971 -0.178078,-0.140333 -0.39953,-0.214151 -0.626191,-0.20873 h -1.391536 c -0.257908,-0.02372 -0.512969,0.06874 -0.695768,0.252215 -0.164476,0.236054 -0.241377,0.522125 -0.217427,0.808831 v 5.296532 c -0.178372,0.640142 0.398003,1.235736 1.043651,1.078441 z M 15.134443,75.685704 V 65.362249 h -2.15688 v -2.269943 l 2.556947,-1.095835 h 3.139652 v 13.689233 z m 10.210394,0.104365 c -0.71768,0.02343 -1.430506,-0.125694 -2.078607,-0.434854 -0.537824,-0.279002 -0.971031,-0.724411 -1.234988,-1.269777 -0.277709,-0.623467 -0.414316,-1.300567 -0.400066,-1.982938 v -6.227123 c -0.02207,-0.731557 0.126829,-1.458176 0.434855,-2.122092 0.268346,-0.562612 0.71462,-1.021113 1.269776,-1.304564 0.621404,-0.31615 1.312095,-0.47163 2.00903,-0.45225 h 2.957013 c 0.677791,-0.02253 1.349606,0.133419 1.94815,0.45225 0.523123,0.297813 0.937508,0.754856 1.182806,1.304564 0.297585,0.666774 0.440308,1.392282 0.41746,2.122092 V 72.1025 c 0.05294,0.988252 -0.280815,1.958313 -0.930589,2.704797 -0.694663,0.677016 -1.640441,1.033259 -2.60913,0.982772 z m 0.86971,-3.17444 h 1.095834 c 0.277889,0.01618 0.551523,-0.07399 0.765345,-0.252216 0.194016,-0.222531 0.288321,-0.514872 0.260913,-0.80883 v -5.313928 c 0.04409,-0.312626 -0.04771,-0.629176 -0.252216,-0.869709 -0.178078,-0.140333 -0.39953,-0.214151 -0.626191,-0.208731 h -1.400233 c -0.257908,-0.02372 -0.512969,0.06874 -0.695768,0.252216 -0.164476,0.236053 -0.241377,0.522124 -0.217427,0.80883 v 5.296533 c -0.206892,0.660906 0.404044,1.286743 1.069743,1.095835 z m 10.323456,3.070075 V 65.362249 h -2.191669 v -2.269943 l 2.556947,-1.095835 h 3.148349 v 13.689233 z m 10.175605,0.104365 c -0.714882,0.0234 -1.424879,-0.125764 -2.06991,-0.434854 C 44.105874,75.076213 43.672667,74.630804 43.40871,74.085438 43.126762,73.463332 42.989959,72.78526 43.008644,72.1025 v -6.227123 c -0.02479,-0.73087 0.121123,-1.457457 0.426158,-2.122092 0.273552,-0.558967 0.718405,-1.016008 1.269776,-1.304564 0.626609,-0.319001 1.323642,-0.474563 2.026424,-0.45225 h 2.96571 c 0.677911,-0.02378 1.350042,0.132256 1.94815,0.45225 0.530193,0.296824 0.953234,0.753343 1.208897,1.304564 0.290382,0.668781 0.429941,1.393298 0.408764,2.122092 V 72.1025 c 0.04579,0.991822 -0.297479,1.962328 -0.956681,2.704797 -0.707164,0.690855 -1.674864,1.048209 -2.661312,0.982772 z m 0.869709,-3.17444 h 1.069744 c 0.275418,0.01752 0.54683,-0.07294 0.756647,-0.252216 0.197152,-0.221134 0.294652,-0.513633 0.26961,-0.80883 v -5.313928 c 0.04649,-0.314263 -0.04911,-0.632929 -0.260913,-0.869709 C 49.249027,65.241268 49.04024,65.17372 48.827003,65.179609 H 47.42677 c -0.257908,-0.02372 -0.512969,0.06874 -0.695768,0.252216 -0.160618,0.237833 -0.237147,0.52252 -0.217428,0.80883 v 5.296533 c -0.04288,0.313993 0.05228,0.631171 0.260913,0.86971 0.216884,0.185009 0.498642,0.275797 0.782739,0.252216 z M 16.891257,54.725697 c -0.714821,0.02271 -1.424658,-0.126413 -2.069909,-0.434855 -0.537824,-0.279001 -0.971031,-0.724411 -1.234988,-1.269776 -0.293156,-0.631295 -0.436047,-1.321933 -0.417461,-2.017727 v -6.201031 c -0.02375,-0.72798 0.122145,-1.451508 0.426158,-2.113395 0.284819,-0.565677 0.745705,-1.023511 1.313262,-1.304565 0.626991,-0.317938 1.323748,-0.473437 2.026424,-0.452249 h 2.96571 c 0.675027,-0.02265 1.344066,0.133363 1.939453,0.452249 0.530193,0.296824 0.953234,0.753344 1.208897,1.304565 0.293887,0.664625 0.433629,1.387119 0.408764,2.113395 v 6.201031 c 0.05533,0.987069 -0.275256,1.956984 -0.921893,2.704798 -0.694662,0.677016 -1.64044,1.033258 -2.609129,0.982772 z m 0.86971,-3.183138 h 1.095835 c 0.274352,0.02087 0.545964,-0.06655 0.756647,-0.243519 0.200919,-0.218932 0.298985,-0.513132 0.26961,-0.80883 v -5.322624 c 0.04901,-0.314441 -0.04691,-0.63417 -0.260913,-0.86971 -0.173937,-0.141744 -0.39323,-0.215871 -0.617494,-0.20873 h -1.365444 c -0.254973,-0.02108 -0.506292,0.07118 -0.687071,0.252216 -0.168304,0.231248 -0.248494,0.514998 -0.226125,0.800133 v 5.30523 c -0.04172,0.313901 0.0533,0.630611 0.260913,0.86971 0.219141,0.180201 0.500046,0.267594 0.782739,0.243518 z m 10.323456,3.070076 V 44.297876 H 25.93624 v -2.269942 l 2.556947,-1.095835 h 3.139652 v 13.680536 z m 10.175605,0.113062 c -0.717592,0.02242 -1.43018,-0.126659 -2.078607,-0.434855 -0.535341,-0.279484 -0.965623,-0.725025 -1.22629,-1.269776 -0.287173,-0.632724 -0.424098,-1.323299 -0.400067,-2.017727 v -6.201031 c -0.02135,-0.728694 0.127544,-1.452327 0.434855,-2.113395 0.270995,-0.560763 0.716541,-1.018516 1.269776,-1.304565 0.62661,-0.319001 1.323642,-0.474562 2.026424,-0.452249 h 2.957014 c 0.677791,-0.02254 1.349605,0.133419 1.94815,0.452249 0.530192,0.296824 0.953233,0.753344 1.208896,1.304565 0.289675,0.665939 0.42923,1.387471 0.408764,2.113395 v 6.201031 c 0.05168,0.986565 -0.278452,1.955155 -0.921892,2.704798 -0.707164,0.690855 -1.674864,1.048208 -2.661312,0.982772 z m 0.86971,-3.183138 h 1.095834 c 0.621267,0.124638 1.163006,-0.435621 1.017561,-1.052349 v -5.322624 c 0.05133,-0.313102 -0.04134,-0.632651 -0.252216,-0.86971 -0.178078,-0.140333 -0.39953,-0.21415 -0.626191,-0.20873 h -1.34805 c -0.257909,-0.02372 -0.512969,0.06874 -0.695768,0.252216 -0.164535,0.232739 -0.241543,0.51613 -0.217428,0.800133 v 5.30523 c -0.03864,0.312215 0.05253,0.62661 0.252216,0.86971 0.222253,0.180731 0.506027,0.268047 0.791436,0.243518 z m 10.314759,3.070076 V 44.297876 h -2.13079 v -2.269942 l 2.556947,-1.095835 h 3.139653 v 13.680536 z m 10.175605,0.113062 c -0.714822,0.02271 -1.424659,-0.126413 -2.06991,-0.434855 -0.537824,-0.279001 -0.971031,-0.724411 -1.234988,-1.269776 -0.2812,-0.634144 -0.41216,-1.324659 -0.382672,-2.017727 v -6.201031 c -0.02375,-0.72798 0.122145,-1.451508 0.426158,-2.113395 0.273552,-0.558967 0.718405,-1.016008 1.269776,-1.304565 0.626991,-0.317938 1.323748,-0.473437 2.026424,-0.452249 h 2.965711 c 0.675149,-0.0239 1.344508,0.132189 1.939452,0.452249 0.532076,0.294427 0.955768,0.751648 1.208897,1.304565 0.30884,0.66113 0.46348,1.383773 0.452249,2.113395 v 6.201031 c 0.05532,0.987069 -0.275255,1.956984 -0.921892,2.704798 -0.694663,0.677016 -1.640441,1.033258 -2.60913,0.982772 z m 0.869709,-3.183138 h 1.121926 c 0.274353,0.02087 0.545965,-0.06655 0.756648,-0.243519 0.200918,-0.218932 0.298985,-0.513132 0.26961,-0.80883 v -5.322624 c 0.04901,-0.314441 -0.04691,-0.63417 -0.260913,-0.86971 -0.173937,-0.141744 -0.39323,-0.215871 -0.617494,-0.20873 h -1.365445 c -0.257908,-0.02372 -0.512968,0.06874 -0.695768,0.252216 -0.168303,0.231248 -0.248494,0.514998 -0.226124,0.800133 v 5.30523 c -0.16986,0.636848 0.402803,1.223829 1.043652,1.069743 z M 17.700087,30.478187 h 1.095835 c 0.613394,0.08587 1.132519,-0.450854 1.026257,-1.061046 v -5.313927 c 0.04901,-0.314441 -0.04691,-0.63417 -0.260913,-0.86971 -0.169656,-0.150134 -0.3912,-0.228142 -0.617494,-0.217427 h -1.374141 c -0.256325,-0.01882 -0.50785,0.07669 -0.687071,0.260912 -0.169009,0.230906 -0.249274,0.514923 -0.226124,0.800134 v 5.296532 c -0.04058,0.31381 0.05429,0.630063 0.260913,0.86971 0.218226,0.181888 0.499841,0.269501 0.782738,0.243519 z m 10.323456,3.070076 V 23.224807 h -2.15688 v -2.261246 l 2.556947,-1.095834 h 3.139652 v 13.680536 z m 10.175605,0.113062 c -0.718702,0.0242 -1.432384,-0.128093 -2.078606,-0.443552 -0.532367,-0.277832 -0.957535,-0.724412 -1.208897,-1.269776 -0.286706,-0.620825 -0.426575,-1.299341 -0.408764,-1.982939 v -6.227122 c -0.02232,-0.728779 0.126622,-1.452631 0.434855,-2.113395 0.273053,-0.561494 0.717792,-1.021465 1.269777,-1.313262 0.62887,-0.311822 1.324793,-0.464149 2.026424,-0.443552 h 2.957013 c 0.676634,-0.02122 1.347397,0.131497 1.94815,0.443552 0.528317,0.300521 0.948327,0.760097 1.2002,1.313262 0.297744,0.663652 0.440504,1.386376 0.41746,2.113395 v 6.227122 c 0.05441,0.986942 -0.27606,1.956523 -0.921892,2.704798 -0.705669,0.694028 -1.673558,1.054614 -2.661312,0.991469 z m 0.86971,-3.183138 h 1.095835 c 0.625896,0.127254 1.170879,-0.44102 1.01756,-1.061046 v -5.313927 c 0.04761,-0.312867 -0.04461,-0.630856 -0.252216,-0.86971 -0.174967,-0.146879 -0.397849,-0.224269 -0.626191,-0.217427 h -1.356747 c -0.259274,-0.02147 -0.514543,0.07426 -0.695768,0.260912 -0.165931,0.232079 -0.243082,0.515993 -0.217428,0.800134 v 5.296532 c -0.03762,0.312133 0.05344,0.626129 0.252216,0.86971 0.222253,0.180732 0.506027,0.268047 0.791436,0.243519 z" /></svg>
