<?xml version="1.0" encoding="UTF-8" standalone="no"?>
<svg
   version="1.1"
   id="Layer_1"
   x="0px"
   y="0px"
   viewBox="0 0 122.88 94.03"
   style="enable-background:new 0 0 122.88 94.03"
   xml:space="preserve"
   sodipodi:docname="private-unlocked-folder-icon.svg"
   inkscape:version="1.2.2 (1:1.2.2+202212051552+b0a8486541)"
   xmlns:inkscape="http://www.inkscape.org/namespaces/inkscape"
   xmlns:sodipodi="http://sodipodi.sourceforge.net/DTD/sodipodi-0.dtd"
   xmlns="http://www.w3.org/2000/svg"
   xmlns:svg="http://www.w3.org/2000/svg"><defs
     id="defs993" /><sodipodi:namedview
     id="namedview991"
     pagecolor="#ffffff"
     bordercolor="#000000"
     borderopacity="0.25"
     inkscape:showpageshadow="2"
     inkscape:pageopacity="0.0"
     inkscape:pagecheckerboard="0"
     inkscape:deskcolor="#d1d1d1"
     showgrid="true"
     inkscape:zoom="8.3803043"
     inkscape:cx="61.453616"
     inkscape:cy="51.310786"
     inkscape:window-width="1920"
     inkscape:window-height="953"
     inkscape:window-x="0"
     inkscape:window-y="0"
     inkscape:window-maximized="1"
     inkscape:current-layer="Layer_1"><inkscape:grid
       type="xygrid"
       id="grid1667" /></sodipodi:namedview><style
     type="text/css"
     id="style984">.st0{fill-rule:evenodd;clip-rule:evenodd;}</style><g
     id="g988"
     transform="translate(-0.10283832)"><path
       id="path986"
       class="st0"
       d="M 14.450495 0 L 14.450495 8.75 L 7.2708071 8.75 L 7.2708071 15.259766 L 115.56964 20.460938 L 115.56964 8.75 L 56.399713 8.75 L 56.399713 0 L 14.450495 0 z M -0.000677305 21.609375 L 6.9993227 88.300781 C 7.3293212 91.440766 9.589809 94.029297 12.729791 94.029297 L 108.0794 94.029297 C 111.2194 94.029297 113.38987 91.420532 113.80987 88.310547 L 122.88018 21.609375 L -0.000677305 21.609375 z M 31.755182 30.042969 A 16.757467 12.519157 0 0 1 48.512995 42.560547 A 16.757467 12.519157 0 0 1 31.755182 55.080078 A 16.757467 12.519157 0 0 1 14.99737 42.560547 A 16.757467 12.519157 0 0 1 31.755182 30.042969 z M 31.796198 61.087891 A 16.695503 12.472865 0 0 1 48.49151 73.560547 A 16.695503 12.472865 0 0 1 31.796198 86.033203 A 16.695503 12.472865 0 0 1 15.100885 73.560547 A 16.695503 12.472865 0 0 1 31.796198 61.087891 z " /></g><g
     id="g1665"
     transform="matrix(1.8743714,0,0,1.8743714,3.9939201,-78.144254)"
     style="display:inline;stroke-width:0.533512"><path
       class="cls-1"
       d="m 10.188618,75.618324 h 1.012017 v -2.124735 a 4.1605202,4.1639416 0 0 1 1.225668,-2.949645 v 0 a 4.1605202,4.1639416 0 0 1 5.894438,0 v 0 a 4.1605202,4.1639416 0 0 1 1.225673,2.949645 v 0.09904 H 17.92156 v -0.122675 a 2.5502865,2.5523836 0 0 0 -0.748891,-1.800623 v 0 a 2.551411,2.5535089 0 0 0 -4.353928,1.800623 v 2.148368 h 7.533906 a 0.32609484,0.32636298 0 0 1 0.324982,0.325238 v 6.877255 a 0.32609484,0.32636298 0 0 1 -0.324982,0.325238 H 10.188618 A 0.32609484,0.32636298 0 0 1 9.8636475,82.820815 v -6.872753 a 0.32609484,0.32636298 0 0 1 0.3249705,-0.329738 z m 5.201773,3.764429 0.515005,2.379073 H 14.49307 l 0.414927,-2.410583 a 0.95691965,0.95770654 0 1 1 0.482394,0.02589 z"
       id="path2035"
       style="display:inline;fill:#008000;fill-rule:evenodd;stroke-width:1"
       transform="matrix(0.5335122,0,0,0.5335122,6.4658743,39.544031)" /></g><g
     id="g1131"
     transform="matrix(1.881328,0,0,1.881328,-106.79013,-25.749066)"
     style="display:inline;stroke-width:0.531539"><path
       d="m 3.0153025,84.995739 c 0.3348596,-0.404308 0.6854201,-0.772289 1.0487008,-1.103023 1.6427864,-1.495181 3.5933871,-2.293942 5.6043825,-2.33405 0.7518892,-0.01502 1.5109982,0.07621 2.2641452,0.276872 l -0.676596,0.676596 c -0.524981,-0.104974 -1.050649,-0.15173 -1.57162,-0.141301 -1.8119352,0.03621 -3.5772285,0.76289 -5.0724106,2.123875 v 0 C 4.3455748,84.737086 4.089101,84.9978 3.8438577,85.276279 c 0.466535,0.541023 0.9855569,1.008591 1.5415945,1.401208 0.3424239,0.241922 0.6987144,0.455306 1.0653189,0.640155 L 5.8477473,87.920666 C 5.5289312,87.748307 5.218137,87.555781 4.917198,87.343199 4.2132123,86.846064 3.5634322,86.239718 2.994216,85.526794 2.8671245,85.366697 2.8797304,85.140592 3.0153025,84.995739 Z M 13.910866,80.718191 14.586202,81.393527 6.1282874,89.85167 5.452837,89.176105 Z m 0.193673,2.017986 c 0.506875,0.289593 1.004696,0.633507 1.489109,1.033001 0.444302,0.366261 0.874968,0.776184 1.2881,1.230226 0.133278,0.146345 0.139811,0.363397 0.02591,0.516501 -0.473411,0.668576 -1.017186,1.239512 -1.612303,1.714755 -1.488879,1.188514 -3.297376,1.773661 -5.129366,1.781911 -0.7006633,0.0032 -1.1228482,-0.359958 -1.8135404,-0.524407 l 0.4062559,-0.406028 c 0.4658477,0.08079 0.9359353,0.120215 1.4040765,0.118154 1.652642,-0.0073 3.283624,-0.534954 4.625929,-1.606689 0.458171,-0.365686 0.883105,-0.795206 1.263805,-1.289705 -0.319389,-0.332911 -0.644852,-0.635224 -0.975014,-0.9074 -0.51054,-0.420924 -1.03621,-0.774579 -1.570816,-1.062682 z m -4.1576759,0.0612 c 0.3052929,0 0.5977509,0.05512 0.8682079,0.15574 l -0.651958,0.651958 c -0.07093,-0.0091 -0.143021,-0.01364 -0.2161353,-0.01364 -0.4676814,0 -0.8910128,0.189547 -1.197452,0.495987 -0.3064397,0.30644 -0.4959876,0.729886 -0.4959876,1.197566 0,0.07323 0.00458,0.145313 0.013637,0.216021 L 7.6152174,86.1532 C 7.5144842,85.882859 7.4594762,85.590287 7.4594762,85.284992 c 0,-0.687024 0.2784772,-1.308728 0.7286249,-1.758989 0.4500329,-0.450263 1.0718506,-0.728625 1.7587614,-0.728625 z m 2.3691189,1.727362 c 0.07677,0.239513 0.118268,0.495068 0.118268,0.760252 0,0.686911 -0.278477,1.308728 -0.72851,1.758876 -0.450263,0.450149 -1.07208,0.728509 -1.7588769,0.728509 -0.2650692,0 -0.520512,-0.04137 -0.7601398,-0.11838 l 0.677742,-0.677742 c 0.027279,0.0015 0.054778,0.0021 0.0824,0.0021 0.4676827,0 0.8910137,-0.189319 1.1974527,-0.495759 0.306439,-0.306439 0.495987,-0.729885 0.495987,-1.197452 0,-0.02761 -6.87e-4,-0.055 -0.0021,-0.08251 z"
       id="path1316"
       style="fill:#800000;stroke-width:0.531536"
       transform="translate(63.667237,-49.157603)" /></g></svg>
