<?xml version="1.0" encoding="UTF-8" standalone="no"?>
<svg
   version="1.1"
   id="Layer_1"
   x="0px"
   y="0px"
   viewBox="0 0 122.88 94.03"
   style="enable-background:new 0 0 122.88 94.03"
   xml:space="preserve"
   sodipodi:docname="public-locked-folder-icon.svg"
   inkscape:version="1.2.2 (1:1.2.2+202212051552+b0a8486541)"
   xmlns:inkscape="http://www.inkscape.org/namespaces/inkscape"
   xmlns:sodipodi="http://sodipodi.sourceforge.net/DTD/sodipodi-0.dtd"
   xmlns="http://www.w3.org/2000/svg"
   xmlns:svg="http://www.w3.org/2000/svg"><defs
     id="defs993" /><sodipodi:namedview
     id="namedview991"
     pagecolor="#ffffff"
     bordercolor="#000000"
     borderopacity="0.25"
     inkscape:showpageshadow="2"
     inkscape:pageopacity="0.0"
     inkscape:pagecheckerboard="0"
     inkscape:deskcolor="#d1d1d1"
     showgrid="true"
     inkscape:zoom="5.92577"
     inkscape:cx="50.626332"
     inkscape:cy="52.988894"
     inkscape:window-width="1920"
     inkscape:window-height="953"
     inkscape:window-x="0"
     inkscape:window-y="0"
     inkscape:window-maximized="1"
     inkscape:current-layer="Layer_1"><inkscape:grid
       type="xygrid"
       id="grid1667" /></sodipodi:namedview><style
     type="text/css"
     id="style984">.st0{fill-rule:evenodd;clip-rule:evenodd;}</style><g
     id="g988"
     transform="translate(-0.10283832)"><path
       id="path986"
       class="st0"
       d="M 14.450495 0 L 14.450495 8.75 L 7.2708071 8.75 L 7.2708071 15.259766 L 115.56964 20.460938 L 115.56964 8.75 L 56.399713 8.75 L 56.399713 0 L 14.450495 0 z M -0.000677305 21.609375 L 6.9993227 88.300781 C 7.3293212 91.440766 9.589809 94.029297 12.729791 94.029297 L 108.0794 94.029297 C 111.2194 94.029297 113.38987 91.420532 113.80987 88.310547 L 122.88018 21.609375 L -0.000677305 21.609375 z M 31.755182 30.042969 A 16.757467 12.519157 0 0 1 48.512995 42.560547 A 16.757467 12.519157 0 0 1 31.755182 55.080078 A 16.757467 12.519157 0 0 1 14.99737 42.560547 A 16.757467 12.519157 0 0 1 31.755182 30.042969 z M 31.796198 61.087891 A 16.695503 12.472865 0 0 1 48.49151 73.560547 A 16.695503 12.472865 0 0 1 31.796198 86.033203 A 16.695503 12.472865 0 0 1 15.100885 73.560547 A 16.695503 12.472865 0 0 1 31.796198 61.087891 z " /></g><g
     id="g1665"
     transform="matrix(1.8743714,0,0,1.8743714,3.9939201,-78.144254)"
     style="display:inline;stroke-width:0.533512"><path
       fill-rule="evenodd"
       clip-rule="evenodd"
       d="m 11.901779,79.89036 h 0.537827 v -0.06453 -1.071211 c 0,-0.612631 0.250754,-1.169666 0.654229,-1.573262 v -4.62e-4 c 0.403655,-0.403656 0.960812,-0.654408 1.573859,-0.654408 0.612567,0 1.169604,0.250752 1.573259,0.654408 l 6.01e-4,4.62e-4 c 0.403476,0.403596 0.654229,0.960631 0.654229,1.573262 v 1.071211 0.06453 h 0.428389 c 0.09545,0 0.173612,0.07816 0.173612,0.173552 v 3.665677 c 0,0.09539 -0.07816,0.173552 -0.173612,0.173552 h -5.422393 c -0.09545,0 -0.173613,-0.07816 -0.173613,-0.173552 v -3.665677 c 0,-0.09539 0.07816,-0.173552 0.173613,-0.173552 z m 1.403489,0 h 2.724673 v -0.06453 -1.083578 c 0,-0.374601 -0.153322,-0.715401 -0.399934,-0.962313 l -3e-4,2.4e-4 c -0.246791,-0.246975 -0.587533,-0.400359 -0.962013,-0.400359 -0.374659,0 -0.715401,0.153324 -0.962493,0.400116 -0.246671,0.246912 -0.399933,0.587712 -0.399933,0.962313 v 1.083638 z m 1.373412,2.005787 0.275006,1.269017 -0.753821,0.0032 0.221218,-1.286065 c -0.20597,-0.06603 -0.35527,-0.259038 -0.35527,-0.486919 0,-0.28221 0.228722,-0.510932 0.511053,-0.510932 0.28203,0 0.510932,0.228722 0.510932,0.510932 0,0.247332 -0.175773,0.453659 -0.409118,0.500783 z"
       id="path1624"
       style="fill:#800000;stroke-width:0.533512" /></g><g
     id="g1131"
     transform="matrix(1.881328,0,0,1.881328,-106.79013,-25.749066)"
     style="display:inline;stroke-width:0.531539"><path
       d="m 66.705489,35.82663 c 0.333679,-0.403386 0.683356,-0.770204 1.045603,-1.100455 1.638684,-1.491272 3.58362,-2.287758 5.589124,-2.327754 2.000929,-0.03999 4.053282,0.674214 5.907942,2.204338 0.443384,0.365676 0.871907,0.773633 1.284435,1.227299 0.13256,0.14627 0.139412,0.362247 0.02625,0.515374 -0.471948,0.666215 -1.014752,1.236441 -1.607827,1.709533 -1.484417,1.185018 -3.287656,1.767813 -5.114888,1.776955 -1.82038,0.008 -3.663614,-0.55537 -5.233733,-1.664967 -0.701639,-0.495947 -1.349571,-1.100454 -1.917511,-1.811236 -0.126844,-0.159983 -0.114274,-0.385103 0.02057,-0.529087 z M 73.6179,35.420958 c 0.06742,0 0.133699,0.01029 0.195409,0.02743 -0.05257,0.05714 -0.08342,0.1337 -0.08342,0.21712 0,0.178267 0.143987,0.322252 0.322253,0.322252 0.08799,0 0.16684,-0.03428 0.225118,-0.09142 0.02287,0.06856 0.03428,0.141699 0.03428,0.21712 0,0.382816 -0.310823,0.693641 -0.693641,0.693641 -0.382814,0 -0.693641,-0.310825 -0.693641,-0.693641 0,-0.381675 0.310827,-0.692499 0.693641,-0.692499 z m 0,-1.787239 c 0.684498,0 1.305005,0.277684 1.7541,0.726779 0.449094,0.449097 0.72678,1.06846 0.72678,1.754101 0,0.684499 -0.277686,1.305005 -0.72678,1.7541 -0.449095,0.449095 -1.068457,0.726781 -1.7541,0.726781 -0.684501,0 -1.305004,-0.277686 -1.754099,-0.726781 -0.449095,-0.449095 -0.726781,-1.068458 -0.726781,-1.7541 0,-0.684498 0.277686,-1.305004 0.726781,-1.754101 0.449095,-0.449095 1.069598,-0.726779 1.754099,-0.726779 z m 1.194161,1.286721 C 74.50695,34.615329 74.084137,34.425634 73.6179,34.425634 c -0.466236,0 -0.889049,0.188552 -1.19416,0.494806 -0.305111,0.305111 -0.494804,0.727923 -0.494804,1.194159 0,0.466237 0.188551,0.889049 0.494804,1.194159 0.305111,0.305111 0.727924,0.494805 1.19416,0.494805 0.466237,0 0.88905,-0.188551 1.194161,-0.494805 0.305108,-0.30511 0.494804,-0.727922 0.494804,-1.194159 0,-0.466236 -0.189696,-0.889048 -0.494804,-1.194159 z m -6.513598,0.405672 c -0.265115,0.241117 -0.521088,0.501661 -0.765633,0.779345 0.465094,0.539372 0.982753,1.005608 1.53698,1.397567 1.432991,1.011321 3.109384,1.525552 4.764069,1.518696 1.647824,-0.008 3.273934,-0.533658 4.613221,-1.602116 0.457095,-0.364533 0.879908,-0.793059 1.260438,-1.285578 -0.318825,-0.332536 -0.64336,-0.633076 -0.972469,-0.905047 -1.70153,-1.402138 -3.567621,-2.055783 -5.378857,-2.020359 -1.806666,0.03657 -3.567621,0.761063 -5.057749,2.117492 z"
       id="path635"
       style="display:inline;fill:#008000;stroke-width:0.999998" /></g></svg>
